<svg xmlns="http://www.w3.org/2000/svg" viewBox="0 0 48 48"><radialGradient id="XY4nkyTdOuotJMi0co792a" cx="40.863" cy="25.776" r="2.469" gradientTransform="matrix(.9938 .1748 -.4458 2.1652 11.754 -37.501)" gradientUnits="userSpaceOnUse"><stop offset="0" stop-color="#ffe16e"/><stop offset=".461" stop-color="#ffd226"/><stop offset=".741" stop-color="#f8c21d"/><stop offset=".999" stop-color="#f0af13"/></radialGradient><path fill="url(#XY4nkyTdOuotJMi0co792a)" d="M40.01,21.867c1.138-0.321,3.888-0.117,3.983,2.834c0.09,2.79-0.695,4.061-1.739,5.259c-1.17,1.344-3.274,1.334-3.1,0.266S40.01,21.867,40.01,21.867z"/><radialGradient id="XY4nkyTdOuotJMi0co792b" cx="12.195" cy="25.776" r="2.469" gradientTransform="matrix(-.9938 .1748 .4458 2.1652 7.901 -32.491)" gradientUnits="userSpaceOnUse"><stop offset="0" stop-color="#ffe16e"/><stop offset=".461" stop-color="#ffd226"/><stop offset=".741" stop-color="#f8c21d"/><stop offset=".999" stop-color="#f0af13"/></radialGradient><path fill="url(#XY4nkyTdOuotJMi0co792b)" d="M8.134,21.867c-1.138-0.321-3.888-0.117-3.983,2.834c-0.09,2.79,0.695,4.061,1.739,5.259c1.17,1.344,3.274,1.334,3.1,0.266S8.134,21.867,8.134,21.867z"/><radialGradient id="XY4nkyTdOuotJMi0co792c" cx="24" cy="25" r="18" fx="23.905" fy="17.289" gradientUnits="userSpaceOnUse"><stop offset="0" stop-color="#ffe16e"/><stop offset=".629" stop-color="#ffd226"/><stop offset=".75" stop-color="#fdcd23"/><stop offset=".899" stop-color="#f6bd1b"/><stop offset=".999" stop-color="#f0af13"/></radialGradient><path fill="url(#XY4nkyTdOuotJMi0co792c)" d="M42,25c0,3.372-0.927,6.528-2.541,9.226C36.316,39.481,30.569,43,24,43c-6.569,0-12.316-3.519-15.459-8.774C6.927,31.528,6,28.372,6,25c0-5,1.113-8.128,3.021-10.986C12.249,9.182,17.753,7,24,7c6.213,0,11.691,2.148,14.926,6.936C40.867,16.809,42,20,42,25z"/><linearGradient id="XY4nkyTdOuotJMi0co792d" x1="23.454" x2="30.32" y1="-6.954" y2="-6.954" gradientTransform="matrix(.999 .0106 .0106 .8863 -1.475 15.843)" gradientUnits="userSpaceOnUse"><stop offset="0" stop-color="#bd8500"/><stop offset=".251" stop-color="#c48c04" stop-opacity=".749"/><stop offset=".616" stop-color="#d79e10" stop-opacity=".384"/><stop offset="1" stop-color="#f3b821" stop-opacity="0"/></linearGradient><path fill="url(#XY4nkyTdOuotJMi0co792d)" d="M21.456,6.868c1.426-0.871,4.65-2.115,6.357,0.288c0.924,1.391,0.565,2.766-0.61,3.517c-1.619,1.035-1.756,1.945-1.454,3.085c0.075,0.285-0.337,0.502-0.561,0.367c-1.388-0.838-2.355-2.611-1.249-4.126C24.774,8.856,24.982,6.545,21.456,6.868z"/><path fill="#805b2a" d="M15.419,18.708c0.256-0.437,0.597-0.701,0.962-0.883c0.366-0.193,0.76-0.265,1.15-0.294 c0.391,0.002,0.778,0.044,1.148,0.197c0.37,0.143,0.727,0.357,1.05,0.743l0.025,0.03c0.015,0.018,0.013,0.045-0.005,0.059 c-0.009,0.007-0.02,0.01-0.03,0.01c-0.717-0.056-1.436-0.085-2.15-0.042c-0.714,0.009-1.427,0.1-2.123,0.275 c-0.023,0.006-0.045-0.008-0.051-0.031c-0.003-0.011-0.001-0.022,0.004-0.031L15.419,18.708z"/><path fill="#805b2a" d="M28.859,18.49c0.299-0.409,0.664-0.637,1.047-0.781c0.383-0.155,0.783-0.187,1.173-0.177 c0.389,0.042,0.769,0.122,1.122,0.312c0.354,0.18,0.687,0.429,0.969,0.846l0.022,0.033c0.013,0.019,0.008,0.046-0.011,0.059 c-0.009,0.006-0.021,0.008-0.031,0.007c-0.708-0.128-1.421-0.23-2.135-0.259c-0.712-0.063-1.43-0.045-2.14,0.059 c-0.023,0.003-0.044-0.013-0.048-0.036c-0.002-0.011,0.001-0.022,0.008-0.031L28.859,18.49z"/><radialGradient id="XY4nkyTdOuotJMi0co792e" cx="23.588" cy="11.084" r="6.973" fx="16.759" fy="12.494" gradientTransform="matrix(1.0004 -.0043 -.0043 1.0458 .05 -.536)" gradientUnits="userSpaceOnUse"><stop offset="0" stop-color="#c69c6d"/><stop offset=".272" stop-color="#c49a6b"/><stop offset=".37" stop-color="#bd9365"/><stop offset=".381" stop-color="#bc9264"/><stop offset=".496" stop-color="#b98f61"/><stop offset=".592" stop-color="#ae8458"/><stop offset=".681" stop-color="#9d7348"/><stop offset=".744" stop-color="#8c6239"/><stop offset=".804" stop-color="#875d34"/><stop offset=".88" stop-color="#774e27"/><stop offset=".958" stop-color="#603813"/></radialGradient><path fill="url(#XY4nkyTdOuotJMi0co792e)" d="M19.771,7.354c0.247-2.451,6.186-4.692,7.856-1.884c0.902,1.626,0.086,3.829-1.372,4.739c-1.507,0.942-1.878,1.689-1.168,3.298c0.134,0.305-0.346,0.598-0.568,0.442c-1.376-0.966-3.194-2.519-2.061-4.325C23.314,8.262,23.308,6.914,19.771,7.354z"/><linearGradient id="XY4nkyTdOuotJMi0co792f" x1="23.495" x2="22.479" y1="8.638" y2="5.428" gradientUnits="userSpaceOnUse"><stop offset=".245" stop-color="#c69c6d"/><stop offset=".376" stop-color="#d8b57f" stop-opacity=".781"/><stop offset=".565" stop-color="#edd294" stop-opacity=".468"/><stop offset=".728" stop-color="#fae4a1" stop-opacity=".196"/><stop offset=".846" stop-color="#ffeaa6" stop-opacity="0"/></linearGradient><path fill="url(#XY4nkyTdOuotJMi0co792f)" d="M21.5,6.875c1.759-0.122,3.041,0.078,1.947,2.219c-0.333,0.497-0.06,0.503,0.235,0.129C25.518,6.906,24.07,5.886,21.5,6.875z"/><radialGradient id="XY4nkyTdOuotJMi0co792g" cx="23.747" cy="8.319" r="4.526" fx="21.883" fy="4.194" gradientUnits="userSpaceOnUse"><stop offset="0" stop-color="#c69c6d"/><stop offset=".272" stop-color="#c49a6b"/><stop offset=".37" stop-color="#bd9365"/><stop offset=".381" stop-color="#bc9264"/><stop offset=".496" stop-color="#b98f61"/><stop offset=".592" stop-color="#ae8458"/><stop offset=".681" stop-color="#9d7348"/><stop offset=".744" stop-color="#8c6239"/><stop offset=".804" stop-color="#875d34"/><stop offset=".88" stop-color="#774e27"/><stop offset=".958" stop-color="#603813"/></radialGradient><path fill="url(#XY4nkyTdOuotJMi0co792g)" d="M27.591,5.855c-0.05-0.08-0.115-0.144-0.173-0.216c0.415,1.433-0.604,3.455-1.918,4.298c-1.391,0.893-1.068,2.139-0.42,3.58c-0.708-1.532-0.339-2.245,1.159-3.136C27.692,9.516,28.499,7.413,27.591,5.855z"/><radialGradient id="XY4nkyTdOuotJMi0co792h" cx="58.296" cy="35.531" r="2.511" gradientTransform="matrix(1.3195 0 0 1.1319 -52.894 -8.326)" gradientUnits="userSpaceOnUse"><stop offset=".696" stop-color="#cc9000"/><stop offset=".765" stop-color="#d29806" stop-opacity=".772"/><stop offset=".875" stop-color="#e4af16" stop-opacity=".41"/><stop offset="1" stop-color="#fed12e" stop-opacity="0"/></radialGradient><path fill="url(#XY4nkyTdOuotJMi0co792h)" d="M24.003,32.83c-1.114,0-2.022-0.294-2.582-0.613c-0.412-0.235-0.829-0.127-0.556,0.609C21.235,33.824,22.079,35,24.003,35c1.892,0,2.74-1.136,3.119-2.123c0.291-0.758-0.129-0.834-0.487-0.66C25.944,32.552,25.091,32.83,24.003,32.83z"/><radialGradient id="XY4nkyTdOuotJMi0co792i" cx="-21.358" cy="57.144" r="3.799" gradientTransform="translate(47.307 -25.374) scale(1.0927)" gradientUnits="userSpaceOnUse"><stop offset=".696" stop-color="#cc9000"/><stop offset=".779" stop-color="#d39806" stop-opacity=".728"/><stop offset=".909" stop-color="#e7af18" stop-opacity=".298"/><stop offset="1" stop-color="#f8c327" stop-opacity="0"/></radialGradient><path fill="url(#XY4nkyTdOuotJMi0co792i)" d="M23.951,38.813c-4.158,0-4.299-2.43-4.299-2.43s0.102,4.86,4.299,4.86s4.299-4.86,4.299-4.86S28.109,38.813,23.951,38.813z"/><radialGradient id="XY4nkyTdOuotJMi0co792j" cx="-38.763" cy="34.166" r="5.86" fx="-38.768" fy="34.386" gradientTransform="matrix(.7909 0 0 .4766 54.657 19.912)" gradientUnits="userSpaceOnUse"><stop offset=".371" stop-color="#ffd226"/><stop offset=".948" stop-color="#ffe16e"/><stop offset="1" stop-color="#ffe16e" stop-opacity="0"/></radialGradient><path fill="url(#XY4nkyTdOuotJMi0co792j)" d="M28.562,36c0,0,0.058,3-4.564,3s-4.564-3-4.564-3s1.014,0.914,4.564,0.914S28.562,36,28.562,36z"/><radialGradient id="XY4nkyTdOuotJMi0co792k" cx="-44.742" cy="32.967" r="4.691" gradientTransform="matrix(.8333 0 0 .6703 61.342 13.826)" gradientUnits="userSpaceOnUse"><stop offset="0" stop-color="#1c1911"/><stop offset=".999" stop-color="#171714"/></radialGradient><path fill="url(#XY4nkyTdOuotJMi0co792k)" d="M19.75,36c-0.249,0-0.394,0.209-0.271,0.377C20.39,37.623,22.477,38,23.999,38c1.654,0,3.609-0.377,4.519-1.623C28.641,36.209,28.496,36,28.247,36C25.031,36,23.031,36,19.75,36z"/><radialGradient id="XY4nkyTdOuotJMi0co792l" cx="17.78" cy="31.061" r="2.237" gradientTransform="matrix(1.4549 0 .0041 .8212 -1.963 5.482)" gradientUnits="userSpaceOnUse"><stop offset=".479" stop-color="#fed53f"/><stop offset=".868" stop-color="#fed53d" stop-opacity=".253"/><stop offset="1" stop-color="#fed337" stop-opacity="0"/></radialGradient><path fill="url(#XY4nkyTdOuotJMi0co792l)" d="M27.485,31.073c-0.027,1.111-1.61,1.974-3.535,1.927c-1.925-0.047-3.464-0.985-3.437-2.096c0.027-1.111,1.61-1.974,3.535-1.927S27.512,29.962,27.485,31.073z"/><radialGradient id="XY4nkyTdOuotJMi0co792m" cx="23.999" cy="31.659" r="1.793" gradientTransform="matrix(1 0 0 .5578 0 13.342)" gradientUnits="userSpaceOnUse"><stop offset=".004" stop-color="#fff4c9"/><stop offset="1" stop-color="#fff4c9" stop-opacity="0"/></radialGradient><ellipse cx="23.999" cy="31" fill="url(#XY4nkyTdOuotJMi0co792m)" rx="1.793" ry="1"/><path fill="#805b2a" d="M12.005,25.158c-0.029,0.519,0.069,0.475,0.246,0.734c0,0,2.001,3.116,8.038,0.983c0.436-0.176,0.751-0.509,0.706-0.911C20.221,19.06,13,19.899,12.005,25.158z"/><path fill="#fff" d="M12.096,25.484c-0.151,0.309-0.103,0.557,0,0.806c0.43,1.087,3.887,4.957,8.551,0.894c0.348-0.287,0.403-0.54,0.317-0.898C20.878,25.928,19.669,22,16.503,22C13.368,22,12.358,25.063,12.096,25.484z"/><linearGradient id="XY4nkyTdOuotJMi0co792n" x1="14" x2="19" y1="25.5" y2="25.5" gradientUnits="userSpaceOnUse"><stop offset="0" stop-color="#c69c6d"/><stop offset="1" stop-color="#754c24"/></linearGradient><circle cx="16.5" cy="25.5" r="2.5" fill="url(#XY4nkyTdOuotJMi0co792n)"/><radialGradient id="XY4nkyTdOuotJMi0co792o" cx="16.5" cy="25.5" r="1.266" gradientUnits="userSpaceOnUse"><stop offset="0" stop-color="#1c1911"/><stop offset=".999" stop-color="#171714"/></radialGradient><circle cx="16.5" cy="25.5" r="1.266" fill="url(#XY4nkyTdOuotJMi0co792o)"/><path fill="#805b2a" d="M35.995,25.158c0.029,0.519-0.069,0.475-0.246,0.734c0,0-2.001,3.116-8.038,0.983c-0.436-0.176-0.751-0.509-0.706-0.911C27.779,19.06,35,19.899,35.995,25.158z"/><path fill="#fff" d="M35.904,25.484c0.151,0.309,0.103,0.557,0,0.806c-0.43,1.087-3.887,4.957-8.551,0.894c-0.348-0.287-0.403-0.54-0.317-0.898C27.122,25.928,28.331,22,31.497,22C34.632,22,35.642,25.063,35.904,25.484z"/><linearGradient id="XY4nkyTdOuotJMi0co792p" x1="15" x2="20" y1="25.5" y2="25.5" gradientTransform="translate(14)" gradientUnits="userSpaceOnUse"><stop offset="0" stop-color="#c69c6d"/><stop offset="1" stop-color="#754c24"/></linearGradient><circle cx="31.5" cy="25.5" r="2.5" fill="url(#XY4nkyTdOuotJMi0co792p)"/><radialGradient id="XY4nkyTdOuotJMi0co792q" cx="-120.5" cy="25.5" r="1.266" gradientTransform="matrix(-1 0 0 1 -89 0)" gradientUnits="userSpaceOnUse"><stop offset="0" stop-color="#1c1911"/><stop offset=".999" stop-color="#171714"/></radialGradient><circle cx="31.5" cy="25.5" r="1.266" fill="url(#XY4nkyTdOuotJMi0co792q)"/><circle cx="15.5" cy="24.5" r=".5" fill="#fff"/><circle cx="30.5" cy="24.5" r=".5" fill="#fff"/></svg>