<svg xmlns="http://www.w3.org/2000/svg" xmlns:xlink="http://www.w3.org/1999/xlink" viewBox="0 0 48 48"><linearGradient id="dBoDMuh2nVWfd2lnbUtqGa" x1="2.869" x2="13.26" y1="36.802" y2="38.477" gradientTransform="rotate(-8.885 8.217 38.11)" gradientUnits="userSpaceOnUse"><stop offset="0" stop-color="#c69c6d"/><stop offset=".106" stop-color="#aa8054"/><stop offset=".217" stop-color="#946a40"/><stop offset=".288" stop-color="#8c6239"/><stop offset=".999" stop-color="#331604"/></linearGradient><path fill="url(#dBoDMuh2nVWfd2lnbUtqGa)" d="M11,31.417c-0.991,0.037-5.233,0.318-5.744,4.334C4.748,39.74,6,40.583,4.458,42.417c-1.238,1.472,0.708,1.542,1.708,1.5c1.466-0.061,7.216-2.271,7.167-7.708C13.293,31.761,11,31.417,11,31.417z"/><radialGradient id="dBoDMuh2nVWfd2lnbUtqGb" cx="7.88" cy="33.017" r="5.193" fx="7.631" fy="31.107" gradientTransform="matrix(.1358 -.8058 .4939 .0832 -9.338 40.596)" gradientUnits="userSpaceOnUse"><stop offset=".004" stop-color="#a67c52" stop-opacity=".8"/><stop offset="1" stop-color="#8c6239" stop-opacity="0"/></radialGradient><path fill="url(#dBoDMuh2nVWfd2lnbUtqGb)" d="M8.818,32.37c1.566,0.264,2.487,2.548,2.056,5.102c-0.43,2.554-2.049,4.41-3.615,4.146c-1.566-0.264-2.487-2.548-2.056-5.102C5.634,33.963,7.252,32.106,8.818,32.37z"/><linearGradient id="dBoDMuh2nVWfd2lnbUtqGc" x1="32.139" x2="42.529" y1="41.381" y2="43.056" gradientTransform="scale(-1 1) rotate(-8.893 -30.484 535.702)" gradientUnits="userSpaceOnUse"><stop offset="0" stop-color="#c69c6d"/><stop offset=".106" stop-color="#aa8054"/><stop offset=".217" stop-color="#946a40"/><stop offset=".288" stop-color="#8c6239"/><stop offset=".999" stop-color="#331604"/></linearGradient><path fill="url(#dBoDMuh2nVWfd2lnbUtqGc)" d="M36.768,31.417c0.991,0.037,5.233,0.318,5.744,4.334c0.508,3.989-0.744,4.832,0.798,6.666c1.238,1.472-0.708,1.542-1.708,1.5c-1.466-0.061-7.216-2.271-7.167-7.708C34.475,31.761,36.768,31.417,36.768,31.417z"/><radialGradient id="dBoDMuh2nVWfd2lnbUtqGd" cx="13.905" cy="56.506" r="5.193" fx="13.657" fy="54.597" gradientTransform="matrix(-.1358 -.8058 -.4939 .0832 69.525 43.495)" gradientUnits="userSpaceOnUse"><stop offset=".004" stop-color="#a67c52" stop-opacity=".8"/><stop offset="1" stop-color="#8c6239" stop-opacity="0"/></radialGradient><path fill="url(#dBoDMuh2nVWfd2lnbUtqGd)" d="M38.95,32.37c-1.566,0.264-2.487,2.548-2.056,5.102c0.43,2.554,2.049,4.41,3.615,4.146c1.566-0.264,2.487-2.548,2.056-5.102C42.134,33.963,40.516,32.106,38.95,32.37z"/><radialGradient id="dBoDMuh2nVWfd2lnbUtqGe" cx="37.538" cy="27.915" r="2.469" gradientTransform="matrix(.9938 .1748 -.4458 2.1652 15.011 -39.552)" gradientUnits="userSpaceOnUse"><stop offset="0" stop-color="#ffe16e"/><stop offset=".461" stop-color="#ffd226"/><stop offset=".741" stop-color="#f8c21d"/><stop offset=".999" stop-color="#f0af13"/></radialGradient><path fill="url(#dBoDMuh2nVWfd2lnbUtqGe)" d="M39.01,23.867c1.138-0.321,3.888-0.117,3.983,2.834c0.09,2.79-0.695,4.061-1.739,5.259c-1.17,1.344-3.274,1.334-3.1,0.266C38.327,31.158,39.01,23.867,39.01,23.867z"/><radialGradient id="dBoDMuh2nVWfd2lnbUtqGf" cx="-394.458" cy="27.915" r="2.469" gradientTransform="matrix(-1.0232 .1748 .459 2.1652 -408.215 35.946)" gradientUnits="userSpaceOnUse"><stop offset="0" stop-color="#ffe16e"/><stop offset=".461" stop-color="#ffd226"/><stop offset=".741" stop-color="#f8c21d"/><stop offset=".999" stop-color="#f0af13"/></radialGradient><path fill="url(#dBoDMuh2nVWfd2lnbUtqGf)" d="M9.108,23.867c-1.172-0.321-4.004-0.117-4.101,2.834c-0.092,2.79,0.716,4.061,1.79,5.259c1.205,1.344,3.371,1.334,3.192,0.266C9.811,31.158,9.108,23.867,9.108,23.867z"/><radialGradient id="dBoDMuh2nVWfd2lnbUtqGg" cx="29.231" cy="26.5" r="18.252" fx="29.135" fy="18.681" gradientTransform="matrix(.8889 0 0 1 -1.983 0)" gradientUnits="userSpaceOnUse"><stop offset="0" stop-color="#ffe16e"/><stop offset=".629" stop-color="#ffd226"/><stop offset=".75" stop-color="#fdcd23"/><stop offset=".899" stop-color="#f6bd1b"/><stop offset=".999" stop-color="#f0af13"/></radialGradient><path fill="url(#dBoDMuh2nVWfd2lnbUtqGg)" d="M40,26c0,3.372-0.824,7.528-2.258,10.226C34.948,41.481,29.839,45,24,45c-5.839,0-10.948-3.519-13.742-8.774C8.824,33.528,8,29.372,8,26c0-5,0.989-8.128,2.686-10.986C13.555,10.182,18.447,8,24,8c5.523,0,10.392,2.148,13.267,6.936C38.993,17.809,40,21,40,26z"/><radialGradient id="dBoDMuh2nVWfd2lnbUtqGh" cx="24.3" cy="13.611" r="13.326" gradientTransform="translate(.59 .623) scale(.9761)" gradientUnits="userSpaceOnUse"><stop offset="0" stop-color="#c69c6d"/><stop offset=".292" stop-color="#a77d51"/><stop offset=".577" stop-color="#8c6239"/><stop offset=".999" stop-color="#603813"/></radialGradient><path fill="url(#dBoDMuh2nVWfd2lnbUtqGh)" d="M24,4.505C21.744,3.064,9.06,4.24,7.302,14.96c-0.443,2.703-0.344,5.873,0.656,9.998c0.976-2.922,2.271-6.045,7.151-7.993c4.859-1.939,7.9-2.673,8.89-4.602c0.99,1.928,4.032,2.663,8.89,4.602c4.881,1.948,6.05,5.071,7.026,7.993c0.833-4.167,1.327-7.335,0.902-10.046C39.135,4.177,26.256,3.064,24,4.505z"/><radialGradient id="dBoDMuh2nVWfd2lnbUtqGi" cx="24.155" cy="13.906" r="13.21" gradientUnits="userSpaceOnUse"><stop offset="0" stop-color="#c69c6d"/><stop offset=".292" stop-color="#a77d51"/><stop offset=".577" stop-color="#8c6239"/><stop offset=".999" stop-color="#603813"/></radialGradient><path fill="url(#dBoDMuh2nVWfd2lnbUtqGi)" d="M34.542,13.604c-3.396-1.358-7.938-1.5-9.229-6.339c-0.576-2.158-2.16-2.01-2.562-0.125 c-0.979,4.589-5.568,4.962-8.854,6.276c-5.131,2.053-5.794,7.675-5.92,11.504C7.985,24.948,7.991,24.973,8,25 c1-3,1.875-6.25,6.875-8.25c4.978-1.991,8.094-2.745,9.108-4.725c1.014,1.98,4.13,2.734,9.108,4.725 c4.989,1.996,5.871,5.236,6.869,8.231C39.849,21.841,39.639,15.643,34.542,13.604z"/><radialGradient id="dBoDMuh2nVWfd2lnbUtqGj" cx="24.155" cy="14.038" r="13.158" gradientUnits="userSpaceOnUse"><stop offset="0" stop-color="#c09667"/><stop offset=".279" stop-color="#a3794e"/><stop offset=".577" stop-color="#895f37"/><stop offset=".999" stop-color="#603813"/></radialGradient><path fill="url(#dBoDMuh2nVWfd2lnbUtqGj)" d="M22.817,7.198c-0.952,4.609-5.495,4.996-8.883,6.351c-5.131,2.053-5.831,7.543-5.957,11.372 C7.985,24.948,7.991,24.973,8,25c1-3,1.875-6.25,6.875-8.25c4.599-1.839,7.608-2.623,8.84-4.293c0.1-0.135,0.192-0.271,0.272-0.408 c0.053,0.091,0.111,0.182,0.171,0.273c1.167,1.764,4.213,2.54,8.933,4.428c4.989,1.996,5.871,5.236,6.869,8.231 c-0.111-3.14-0.388-9.217-5.485-11.256c-3.427-1.371-7.872-1.528-9.177-6.235c-0.483-1.761-1.629-1.973-2.216-0.983 C22.979,6.68,22.876,6.91,22.817,7.198z"/><radialGradient id="dBoDMuh2nVWfd2lnbUtqGk" cx="24.155" cy="14.169" r="13.107" gradientUnits="userSpaceOnUse"><stop offset="0" stop-color="#b99062"/><stop offset=".258" stop-color="#a1774c"/><stop offset=".577" stop-color="#875d34"/><stop offset=".999" stop-color="#603813"/></radialGradient><path fill="url(#dBoDMuh2nVWfd2lnbUtqGk)" d="M22.883,7.255c-0.925,4.629-5.423,5.03-8.913,6.426c-5.131,2.053-5.869,7.411-5.995,11.24 C7.985,24.948,7.991,24.973,8,25c1-3,1.875-6.25,6.875-8.25c4.59-1.836,7.597-2.62,8.833-4.284c0.1-0.135,0.197-0.266,0.283-0.392 c0.058,0.086,0.119,0.174,0.181,0.266c1.175,1.752,4.216,2.529,8.92,4.41c4.989,1.996,5.871,5.236,6.869,8.231 c-0.111-3.14-0.454-9.097-5.552-11.136c-3.458-1.383-7.819-1.552-9.125-6.131c-0.483-1.691-1.556-1.942-2.127-1.103 C23.058,6.754,22.941,6.966,22.883,7.255z"/><radialGradient id="dBoDMuh2nVWfd2lnbUtqGl" cx="24.155" cy="14.297" r="13.058" gradientUnits="userSpaceOnUse"><stop offset="0" stop-color="#b3895c"/><stop offset=".233" stop-color="#9e744a"/><stop offset=".577" stop-color="#845a32"/><stop offset=".999" stop-color="#603813"/></radialGradient><path fill="url(#dBoDMuh2nVWfd2lnbUtqGl)" d="M22.95,7.313c-0.899,4.649-5.35,5.064-8.942,6.5c-5.131,2.053-5.906,7.279-6.032,11.108 C7.985,24.948,7.991,24.973,8,25c1-3,1.875-6.25,6.875-8.25c4.582-1.833,7.586-2.617,8.826-4.275 c0.101-0.135,0.203-0.261,0.294-0.377c0.062,0.081,0.127,0.167,0.19,0.26c1.187,1.737,4.219,2.517,8.907,4.392 c4.989,1.996,5.871,5.236,6.869,8.231c-0.111-3.14-0.521-8.976-5.619-11.015c-3.489-1.396-7.758-1.578-9.073-6.028 c-0.479-1.622-1.482-1.908-2.038-1.223C23.138,6.828,23.006,7.022,22.95,7.313z"/><radialGradient id="dBoDMuh2nVWfd2lnbUtqGm" cx="24.155" cy="14.421" r="13.01" gradientUnits="userSpaceOnUse"><stop offset="0" stop-color="#ad8356"/><stop offset=".212" stop-color="#9b7247"/><stop offset=".577" stop-color="#815830"/><stop offset=".999" stop-color="#603813"/></radialGradient><path fill="url(#dBoDMuh2nVWfd2lnbUtqGm)" d="M23.017,7.37c-0.872,4.669-5.278,5.098-8.971,6.575c-5.131,2.053-5.944,7.147-6.07,10.976 C7.985,24.948,7.991,24.973,8,25c1-3,1.875-6.25,6.875-8.25c4.574-1.829,7.575-2.614,8.819-4.266 c0.102-0.135,0.209-0.256,0.304-0.361c0.066,0.076,0.135,0.16,0.2,0.253c1.196,1.724,4.222,2.506,8.893,4.374 c4.989,1.996,5.871,5.236,6.869,8.231c-0.111-3.14-0.588-8.856-5.686-10.895c-3.521-1.408-7.698-1.604-9.021-5.924 c-0.476-1.553-1.407-1.868-1.949-1.342C23.216,6.904,23.071,7.078,23.017,7.37z"/><radialGradient id="dBoDMuh2nVWfd2lnbUtqGn" cx="24.155" cy="14.541" r="12.965" gradientUnits="userSpaceOnUse"><stop offset="0" stop-color="#a67d51"/><stop offset=".18" stop-color="#986f45"/><stop offset=".577" stop-color="#7e552d"/><stop offset=".999" stop-color="#603813"/></radialGradient><path fill="url(#dBoDMuh2nVWfd2lnbUtqGn)" d="M23.084,7.428c-0.845,4.69-5.205,5.132-9,6.65c-5.131,2.053-5.981,7.015-6.107,10.844 C7.985,24.948,7.991,24.973,8,25c1-3,1.875-6.25,6.875-8.25c4.565-1.826,7.564-2.611,8.812-4.257 c0.103-0.136,0.214-0.251,0.315-0.346c0.07,0.071,0.143,0.153,0.209,0.247c1.205,1.712,4.226,2.494,8.88,4.356 c4.989,1.996,5.871,5.236,6.869,8.231c-0.111-3.14-0.655-8.735-5.753-10.774c-3.552-1.421-7.637-1.63-8.969-5.821 c-0.472-1.484-1.337-1.821-1.861-1.462C23.294,6.98,23.137,7.134,23.084,7.428z"/><radialGradient id="dBoDMuh2nVWfd2lnbUtqGo" cx="24.155" cy="14.63" r="12.931" gradientUnits="userSpaceOnUse"><stop offset="0" stop-color="#a0774b"/><stop offset=".151" stop-color="#966c42"/><stop offset=".577" stop-color="#7c522b"/><stop offset=".999" stop-color="#603813"/></radialGradient><path fill="url(#dBoDMuh2nVWfd2lnbUtqGo)" d="M23.15,7.485c-0.818,4.71-5.133,5.166-9.03,6.725c-5.131,2.053-6.019,6.882-6.145,10.712 C7.985,24.948,7.991,24.973,8,25c1-3,1.875-6.25,6.875-8.25c4.557-1.823,7.553-2.609,8.805-4.248 c0.104-0.136,0.22-0.246,0.326-0.33c0.074,0.066,0.151,0.145,0.218,0.24c1.214,1.699,4.229,2.483,8.867,4.338 c4.989,1.996,5.871,5.236,6.869,8.231c-0.111-3.14-0.722-8.615-5.82-10.654c-3.583-1.433-7.575-1.656-8.917-5.717 c-0.468-1.415-1.327-1.865-1.772-1.582C23.365,7.041,23.202,7.19,23.15,7.485z"/><radialGradient id="dBoDMuh2nVWfd2lnbUtqGp" cx="24.155" cy="14.723" r="12.897" gradientUnits="userSpaceOnUse"><stop offset="0" stop-color="#997046"/><stop offset=".091" stop-color="#936a41"/><stop offset=".577" stop-color="#795028"/><stop offset=".999" stop-color="#603813"/></radialGradient><path fill="url(#dBoDMuh2nVWfd2lnbUtqGp)" d="M23.217,7.542c-0.791,4.73-5.06,5.2-9.059,6.799c-5.131,2.053-6.056,6.75-6.182,10.579 C7.985,24.948,7.991,24.973,8,25c1-3,1.875-6.25,6.875-8.25c4.549-1.819,7.542-2.606,8.798-4.239 c0.105-0.136,0.226-0.241,0.337-0.315c0.079,0.06,0.158,0.138,0.228,0.234c1.222,1.686,4.232,2.472,8.854,4.32 c4.989,1.996,5.871,5.236,6.869,8.231c-0.111-3.14-0.789-8.494-5.887-10.534c-3.614-1.446-7.512-1.683-8.865-5.613 c-0.464-1.346-1.265-1.843-1.683-1.702C23.442,7.113,23.267,7.246,23.217,7.542z"/><radialGradient id="dBoDMuh2nVWfd2lnbUtqGq" cx="24.155" cy="14.79" r="12.872" gradientUnits="userSpaceOnUse"><stop offset="0" stop-color="#936a40"/><stop offset=".046" stop-color="#90673e"/><stop offset=".577" stop-color="#764d26"/><stop offset=".999" stop-color="#603813"/></radialGradient><path fill="url(#dBoDMuh2nVWfd2lnbUtqGq)" d="M23.284,7.6c-0.764,4.75-4.988,5.234-9.088,6.874c-5.131,2.053-6.094,6.618-6.219,10.447 C7.985,24.948,7.991,24.973,8,25c1-3,1.875-6.25,6.875-8.25c4.54-1.816,7.531-2.603,8.791-4.23 c0.105-0.136,0.231-0.236,0.347-0.299c0.083,0.055,0.166,0.131,0.237,0.227c1.231,1.674,4.236,2.46,8.841,4.302 c4.989,1.996,5.871,5.236,6.869,8.231c-0.111-3.14-0.856-8.374-5.954-10.413c-3.645-1.458-7.448-1.709-8.814-5.51 c-0.459-1.278-1.203-1.82-1.594-1.821C23.52,7.186,23.332,7.302,23.284,7.6z"/><radialGradient id="dBoDMuh2nVWfd2lnbUtqGr" cx="24.155" cy="14.84" r="12.853" gradientUnits="userSpaceOnUse"><stop offset="0" stop-color="#8d643a"/><stop offset=".577" stop-color="#734a24"/><stop offset=".999" stop-color="#603813"/></radialGradient><path fill="url(#dBoDMuh2nVWfd2lnbUtqGr)" d="M23.351,7.657c-0.737,4.771-4.915,5.268-9.117,6.949c-5.131,2.053-6.131,6.486-6.257,10.315 C7.985,24.948,7.991,24.973,8,25c1-3,1.875-6.25,6.875-8.25c4.532-1.813,7.52-2.6,8.784-4.221c0.106-0.136,0.237-0.231,0.358-0.284 c0.087,0.05,0.174,0.124,0.247,0.221c1.239,1.662,4.239,2.449,8.828,4.284c4.989,1.996,5.871,5.236,6.869,8.231 c-0.111-3.14-0.923-8.253-6.021-10.293c-3.676-1.47-7.384-1.736-8.762-5.406c-0.454-1.209-1.14-1.797-1.506-1.941 C23.597,7.258,23.397,7.358,23.351,7.657z"/><radialGradient id="dBoDMuh2nVWfd2lnbUtqGs" cx="24.155" cy="14.891" r="12.834" gradientUnits="userSpaceOnUse"><stop offset="0" stop-color="#865e35"/><stop offset=".577" stop-color="#714821"/><stop offset=".999" stop-color="#603813"/></radialGradient><path fill="url(#dBoDMuh2nVWfd2lnbUtqGs)" d="M23.417,7.714c-0.711,4.791-4.843,5.302-9.147,7.024c-5.131,2.053-6.169,6.354-6.294,10.183 C7.985,24.948,7.991,24.973,8,25c1-3,1.875-6.25,6.875-8.25c4.524-1.809,7.509-2.597,8.777-4.212 c0.107-0.136,0.243-0.226,0.369-0.268c0.091,0.045,0.182,0.117,0.256,0.214c1.247,1.649,4.242,2.437,8.814,4.266 c4.989,1.996,5.871,5.236,6.869,8.231c-0.111-3.14-0.99-8.133-6.088-10.172c-3.707-1.483-7.318-1.763-8.71-5.303 c-0.448-1.14-1.127-1.725-1.417-2.061C23.658,7.343,23.462,7.414,23.417,7.714z"/><radialGradient id="dBoDMuh2nVWfd2lnbUtqGt" cx="24.155" cy="14.935" r="12.818" gradientUnits="userSpaceOnUse"><stop offset="0" stop-color="#80572f"/><stop offset=".577" stop-color="#6e451f"/><stop offset=".999" stop-color="#603813"/></radialGradient><path fill="url(#dBoDMuh2nVWfd2lnbUtqGt)" d="M23.484,7.772c-0.684,4.811-4.77,5.336-9.176,7.099c-5.131,2.053-6.206,6.222-6.332,10.051 C7.985,24.948,7.991,24.973,8,25c1-3,1.875-6.25,6.875-8.25c4.515-1.806,7.498-2.594,8.77-4.203 c0.108-0.136,0.248-0.221,0.38-0.253c0.095,0.04,0.19,0.109,0.265,0.208c1.255,1.637,4.245,2.426,8.801,4.248 c4.989,1.996,5.871,5.236,6.869,8.231c-0.111-3.14-1.057-8.013-6.154-10.052c-3.738-1.495-7.251-1.791-8.658-5.199 c-0.443-1.072-1.06-1.723-1.328-2.181C23.738,7.41,23.527,7.471,23.484,7.772z"/><radialGradient id="dBoDMuh2nVWfd2lnbUtqGu" cx="24.155" cy="14.978" r="12.802" gradientUnits="userSpaceOnUse"><stop offset="0" stop-color="#7a5129"/><stop offset=".577" stop-color="#6b431c"/><stop offset=".999" stop-color="#603813"/></radialGradient><path fill="url(#dBoDMuh2nVWfd2lnbUtqGu)" d="M23.551,7.829c-0.657,4.831-4.698,5.37-9.205,7.173c-5.131,2.053-6.244,6.089-6.369,9.919 C7.985,24.948,7.991,24.973,8,25c1-3,1.875-6.25,6.875-8.25c4.507-1.803,7.487-2.591,8.763-4.194 c0.109-0.137,0.254-0.216,0.39-0.237c0.1,0.035,0.198,0.102,0.275,0.201c1.262,1.625,4.249,2.415,8.788,4.23 c4.989,1.996,5.871,5.236,6.869,8.231c-0.111-3.14-1.124-7.892-6.221-9.931c-3.769-1.508-7.182-1.819-8.606-5.095 c-0.436-1.004-0.989-1.713-1.24-2.301C23.819,7.479,23.592,7.527,23.551,7.829z"/><radialGradient id="dBoDMuh2nVWfd2lnbUtqGv" cx="24.155" cy="15.02" r="12.787" gradientUnits="userSpaceOnUse"><stop offset="0" stop-color="#734b24"/><stop offset=".577" stop-color="#68401a"/><stop offset=".999" stop-color="#603813"/></radialGradient><path fill="url(#dBoDMuh2nVWfd2lnbUtqGv)" d="M23.617,7.887c-0.63,4.852-4.625,5.404-9.234,7.248c-5.131,2.053-6.281,5.957-6.407,9.786 C7.985,24.948,7.991,24.973,8,25c1-3,1.875-6.25,6.875-8.25c4.499-1.799,7.476-2.588,8.756-4.186 c0.11-0.137,0.26-0.211,0.401-0.222c0.104,0.03,0.205,0.095,0.284,0.195c1.267,1.616,4.252,2.403,8.775,4.212 c4.989,1.996,5.871,5.236,6.869,8.231c-0.111-3.14-1.191-7.772-6.288-9.811c-3.801-1.52-7.112-1.849-8.554-4.992 c-0.429-0.936-0.917-1.698-1.151-2.42C23.9,7.55,23.657,7.583,23.617,7.887z"/><radialGradient id="dBoDMuh2nVWfd2lnbUtqGw" cx="24.155" cy="15.06" r="12.772" gradientUnits="userSpaceOnUse"><stop offset="0" stop-color="#6d451e"/><stop offset=".577" stop-color="#663d18"/><stop offset=".999" stop-color="#603813"/></radialGradient><path fill="url(#dBoDMuh2nVWfd2lnbUtqGw)" d="M23.684,7.944c-0.603,4.872-4.552,5.438-9.264,7.323c-5.131,2.053-6.318,5.825-6.444,9.654 C7.985,24.948,7.991,24.973,8,25c1-3,1.875-6.25,6.875-8.25c4.49-1.796,7.465-2.585,8.749-4.177 c0.111-0.137,0.265-0.206,0.412-0.206c0.108,0.025,0.213,0.088,0.294,0.188c1.275,1.604,4.255,2.392,8.762,4.195 c4.989,1.996,5.871,5.236,6.869,8.231c-0.111-3.14-1.258-7.651-6.355-9.69c-3.832-1.533-7.04-1.879-8.502-4.888 c-0.422-0.868-0.846-1.679-1.062-2.54C23.98,7.621,23.722,7.639,23.684,7.944z"/><radialGradient id="dBoDMuh2nVWfd2lnbUtqGx" cx="24.155" cy="15.1" r="12.758" gradientUnits="userSpaceOnUse"><stop offset="0" stop-color="#663e19"/><stop offset=".577" stop-color="#633b15"/><stop offset=".999" stop-color="#603813"/></radialGradient><path fill="url(#dBoDMuh2nVWfd2lnbUtqGx)" d="M23.751,8.001c-0.576,4.892-4.48,5.472-9.293,7.398c-5.131,2.053-6.356,5.693-6.482,9.522 C7.985,24.948,7.991,24.973,8,25c1-3,1.875-6.25,6.875-8.25c4.482-1.793,7.454-2.583,8.742-4.168 c0.111-0.137,0.271-0.201,0.422-0.191c0.112,0.02,0.221,0.081,0.303,0.182c1.284,1.591,4.259,2.381,8.749,4.177 c4.989,1.996,5.871,5.236,6.869,8.231c-0.111-3.14-1.325-7.531-6.422-9.57c-3.863-1.545-6.965-1.911-8.45-4.785 c-0.414-0.801-0.775-1.659-0.973-2.66C24.06,7.693,23.787,7.695,23.751,8.001z"/><path fill="#603813" d="M33.471,15.531c-4.939-1.976-8.43-2.068-9.283-7.461c-0.048-0.306-0.336-0.32-0.371-0.012 c-0.549,4.912-4.407,5.507-9.322,7.472c-5.131,2.053-6.393,5.561-6.519,9.39C7.985,24.948,7.991,24.973,8,25 c1-3,1.875-6.25,6.875-8.25c4.473-1.789,7.443-2.58,8.735-4.159c0.196-0.239,0.55-0.239,0.746,0 c1.292,1.579,4.262,2.369,8.735,4.159c4.989,1.996,5.871,5.236,6.869,8.231C39.849,21.841,38.568,17.57,33.471,15.531z"/><g><path fill="#f5bd24" d="M33.091,16.75c-4.978-1.991-8.094-2.745-9.108-4.725c-1.014,1.98-4.13,2.734-9.108,4.725 c-4.857,1.943-5.821,5.064-6.789,7.991c1.387-2.819,1.953-4.103,6.742-6.069c4.518-1.854,6.64-2.26,8.692-3.174 c0.286-0.127,0.527-0.098,0.762,0.026c1.958,1.028,4.26,1.244,8.762,3.148c4.471,1.833,5.622,3.557,6.914,6.37 C39.104,22.167,38.091,18.75,33.091,16.75z"/><path fill="#e5af22" d="M33.091,16.75c-4.978-1.991-8.094-2.745-9.108-4.725c-1.014,1.98-4.13,2.734-9.108,4.725 c-4.857,1.943-5.821,5.064-6.789,7.991c1.387-2.819,1.963-4.221,6.752-6.187c4.518-1.854,6.686-2.29,8.692-3.242 c0.281-0.134,0.527-0.105,0.762,0.026c1.923,1.061,4.239,1.339,8.751,3.218c4.461,1.858,5.623,3.673,6.914,6.486 C39.104,22.167,38.091,18.75,33.091,16.75z"/><path fill="#d4a11f" d="M33.091,16.75c-4.978-1.991-8.094-2.745-9.108-4.725c-1.014,1.98-4.13,2.734-9.108,4.725 c-4.857,1.943-5.821,5.064-6.789,7.991c1.387-2.819,1.973-4.339,6.762-6.305c4.518-1.854,6.732-2.32,8.693-3.31 c0.277-0.141,0.526-0.111,0.762,0.026c1.888,1.092,4.228,1.409,8.741,3.288c4.461,1.858,5.623,3.789,6.914,6.602 C39.104,22.167,38.091,18.75,33.091,16.75z"/><path fill="#c4921d" d="M33.091,16.75c-4.978-1.991-8.094-2.745-9.108-4.725c-1.014,1.98-4.13,2.734-9.108,4.725 c-4.857,1.943-5.821,5.064-6.789,7.991c1.387-2.819,1.983-4.457,6.772-6.423c4.518-1.854,6.781-2.346,8.693-3.378 c0.273-0.147,0.526-0.118,0.762,0.026c1.854,1.123,4.218,1.478,8.73,3.358c4.461,1.858,5.623,3.905,6.915,6.718 C39.104,22.167,38.091,18.75,33.091,16.75z"/><path fill="#b4841b" d="M33.091,16.75c-4.978-1.991-8.094-2.745-9.108-4.725c-1.014,1.98-4.13,2.734-9.108,4.725 c-4.857,1.943-5.821,5.064-6.789,7.991c1.387-2.819,1.993-4.575,6.782-6.541c4.518-1.854,6.828-2.375,8.693-3.446 c0.268-0.154,0.526-0.125,0.762,0.026c1.82,1.153,4.207,1.548,8.72,3.428c4.461,1.858,5.623,4.021,6.915,6.834 C39.104,22.167,38.091,18.75,33.091,16.75z"/><path fill="#a47619" d="M33.091,16.75c-4.978-1.991-8.094-2.745-9.108-4.725c-1.014,1.98-4.13,2.734-9.108,4.725 c-4.857,1.943-5.821,5.064-6.789,7.991c1.387-2.819,2.002-4.693,6.792-6.659c4.518-1.854,6.874-2.405,8.694-3.514 c0.264-0.161,0.525-0.131,0.762,0.026c1.786,1.182,4.197,1.618,8.709,3.498c4.461,1.858,5.624,4.137,6.915,6.95 C39.104,22.167,38.091,18.75,33.091,16.75z"/><path fill="#936816" d="M33.091,16.75c-4.978-1.991-8.094-2.745-9.108-4.725c-1.014,1.98-4.13,2.734-9.108,4.725 c-4.857,1.943-5.821,5.064-6.789,7.991c1.387-2.819,2.012-4.811,6.802-6.777c4.518-1.854,6.92-2.435,8.694-3.582 c0.259-0.167,0.525-0.138,0.762,0.026c1.753,1.211,4.186,1.688,8.699,3.567c4.461,1.858,5.624,4.253,6.915,7.066 C39.104,22.167,38.091,18.75,33.091,16.75z"/><path fill="#835a14" d="M33.091,16.75c-4.978-1.991-8.094-2.745-9.108-4.725c-1.014,1.98-4.13,2.734-9.108,4.725 c-4.857,1.943-5.821,5.064-6.789,7.991c1.387-2.819,2.022-4.929,6.812-6.895c4.518-1.854,6.967-2.466,8.694-3.65 c0.254-0.174,0.525-0.145,0.762,0.026c1.72,1.238,4.176,1.758,8.688,3.637c4.461,1.858,5.624,4.369,6.916,7.182 C39.104,22.167,38.091,18.75,33.091,16.75z"/><path fill="#734c12" d="M33.091,16.75c-4.978-1.991-8.094-2.745-9.108-4.725c-1.014,1.98-4.13,2.734-9.108,4.725 c-4.857,1.943-5.821,5.064-6.789,7.991c1.387-2.819,2.032-5.047,6.822-7.012c4.518-1.854,7.012-2.497,8.695-3.717 c0.25-0.181,0.525-0.153,0.762,0.026c1.687,1.265,4.165,1.828,8.678,3.707c4.461,1.858,5.624,4.485,6.916,7.298 C39.104,22.167,38.091,18.75,33.091,16.75z"/><path fill="#633d10" d="M33.091,16.75c-4.978-1.991-8.094-2.745-9.108-4.725c-1.014,1.98-4.13,2.734-9.108,4.725 c-4.857,1.943-5.821,5.064-6.789,7.991c1.387-2.819,2.042-5.164,6.832-7.13c4.518-1.854,7.055-2.531,8.695-3.785 c0.245-0.189,0.525-0.16,0.762,0.026c1.656,1.292,4.155,1.897,8.667,3.777c4.461,1.858,5.625,4.601,6.916,7.414 C39.104,22.167,38.091,18.75,33.091,16.75z"/><path fill="#522f0d" d="M33.091,16.75c-4.978-1.991-8.094-2.745-9.108-4.725c-1.014,1.98-4.13,2.734-9.108,4.725 c-4.857,1.943-5.821,5.064-6.789,7.991c1.387-2.819,2.052-5.282,6.842-7.248c4.518-1.854,7.101-2.562,8.696-3.853 c0.24-0.195,0.525-0.168,0.762,0.026c1.627,1.315,4.144,1.967,8.656,3.847c4.461,1.858,5.625,4.717,6.916,7.53 C39.104,22.167,38.091,18.75,33.091,16.75z"/><path fill="#42210b" d="M33.091,16.75c-4.978-1.991-8.094-2.745-9.108-4.725c-1.014,1.98-4.13,2.734-9.108,4.725 c-4.857,1.943-5.821,5.064-6.789,7.991c1.387-2.819,2.062-5.4,6.852-7.366c4.518-1.854,7.147-2.592,8.696-3.921 c0.235-0.202,0.525-0.175,0.762,0.026c1.594,1.344,4.144,2.012,8.646,3.917c4.471,1.833,5.625,4.833,6.917,7.646 C39.104,22.167,38.091,18.75,33.091,16.75z"/></g><radialGradient id="dBoDMuh2nVWfd2lnbUtqGy" cx="8.899" cy="36.534" r="2.511" gradientTransform="translate(12.286 -15.377) scale(1.3195)" gradientUnits="userSpaceOnUse"><stop offset=".696" stop-color="#cc9000"/><stop offset=".766" stop-color="#d39806" stop-opacity=".769"/><stop offset=".877" stop-color="#e4af16" stop-opacity=".404"/><stop offset="1" stop-color="#fed02e" stop-opacity="0"/></radialGradient><path fill="url(#dBoDMuh2nVWfd2lnbUtqGy)" d="M24.003,33.83c-1.114,0-2.022-0.294-2.582-0.613c-0.412-0.235-0.829-0.127-0.556,0.609C21.235,34.824,22.079,36,24.003,36c1.892,0,2.74-1.136,3.119-2.123c0.291-0.758-0.129-0.834-0.487-0.66C25.944,33.552,25.091,33.83,24.003,33.83z"/><radialGradient id="dBoDMuh2nVWfd2lnbUtqGz" cx="-38.675" cy="59.487" r="3.798" gradientTransform="translate(66.21 -25.955) scale(1.0927)" gradientUnits="userSpaceOnUse"><stop offset=".696" stop-color="#cc9000"/><stop offset=".788" stop-color="#d49807" stop-opacity=".698"/><stop offset=".933" stop-color="#e9af1a" stop-opacity=".22"/><stop offset="1" stop-color="#f5bc24" stop-opacity="0"/></radialGradient><path fill="url(#dBoDMuh2nVWfd2lnbUtqGz)" d="M23.951,40.813c-4.158,0-4.299-2.43-4.299-2.43s0.102,4.86,4.299,4.86s4.299-4.86,4.299-4.86S28.109,40.813,23.951,40.813z"/><radialGradient id="dBoDMuh2nVWfd2lnbUtqGA" cx="15.17" cy="38.363" r="5.86" fx="15.166" fy="38.583" gradientTransform="matrix(.7909 0 0 .4766 12 19.912)" gradientUnits="userSpaceOnUse"><stop offset=".371" stop-color="#ffd226"/><stop offset=".948" stop-color="#ffe16e"/><stop offset="1" stop-color="#ffe16e" stop-opacity="0"/></radialGradient><path fill="url(#dBoDMuh2nVWfd2lnbUtqGA)" d="M28.562,38c0,0,0.058,3-4.564,3s-4.564-3-4.564-3s1.014,0.914,4.564,0.914S28.562,38,28.562,38z"/><radialGradient id="dBoDMuh2nVWfd2lnbUtqGB" cx="-3.918" cy="35.95" r="4.691" gradientTransform="matrix(.8333 0 0 .6703 27.326 13.826)" gradientUnits="userSpaceOnUse"><stop offset="0" stop-color="#1c1911"/><stop offset=".999" stop-color="#171714"/></radialGradient><path fill="url(#dBoDMuh2nVWfd2lnbUtqGB)" d="M19.75,38c-0.249,0-0.394,0.209-0.271,0.377C20.39,39.623,22.477,40,23.999,40c1.654,0,3.609-0.377,4.519-1.623C28.641,38.209,28.496,38,28.247,38C25.031,38,23.031,38,19.75,38z"/><radialGradient id="dBoDMuh2nVWfd2lnbUtqGC" cx="-46.039" cy="28.079" r="2.237" gradientTransform="matrix(1.4549 0 .0041 .8212 90.9 8.931)" gradientUnits="userSpaceOnUse"><stop offset=".479" stop-color="#fed53f"/><stop offset=".926" stop-color="#fed53f" stop-opacity=".141"/><stop offset="1" stop-color="#fed53f" stop-opacity="0"/></radialGradient><path fill="url(#dBoDMuh2nVWfd2lnbUtqGC)" d="M27.485,32.073c-0.027,1.111-1.61,1.974-3.535,1.927c-1.925-0.047-3.464-0.985-3.437-2.096c0.027-1.111,1.61-1.974,3.535-1.927S27.512,30.962,27.485,32.073z"/><radialGradient id="dBoDMuh2nVWfd2lnbUtqGD" cx="23.999" cy="33.452" r="1.793" gradientTransform="matrix(1 0 0 .5578 0 13.342)" gradientUnits="userSpaceOnUse"><stop offset=".004" stop-color="#fff4c9"/><stop offset="1" stop-color="#fff4c9" stop-opacity="0"/></radialGradient><ellipse cx="23.999" cy="32" fill="url(#dBoDMuh2nVWfd2lnbUtqGD)" rx="1.793" ry="1"/><path fill="#805b2a" d="M12.005,27.542c-0.029,0.438,0.069,0.401,0.246,0.62c0,0,2.001,2.631,8.038,0.83c0.436-0.148,0.751-0.43,0.706-0.769C20.221,22.393,13,23.102,12.005,27.542z"/><path fill="#fff" d="M12.096,27.484c-0.151,0.309-0.103,0.557,0,0.806c0.43,1.087,3.887,4.957,8.551,0.894c0.348-0.287,0.403-0.54,0.317-0.898C20.878,27.928,19.669,25,16.503,25C13.368,25,12.358,27.063,12.096,27.484z"/><linearGradient id="dBoDMuh2nVWfd2lnbUtqGE" x1="14" x2="19" y1="27.5" y2="27.5" gradientUnits="userSpaceOnUse"><stop offset="0" stop-color="#c69c6d"/><stop offset="1" stop-color="#754c24"/></linearGradient><circle cx="16.5" cy="27.5" r="2.5" fill="url(#dBoDMuh2nVWfd2lnbUtqGE)"/><radialGradient id="dBoDMuh2nVWfd2lnbUtqGF" cx="16.5" cy="27.5" r="1.266" gradientUnits="userSpaceOnUse"><stop offset="0" stop-color="#1c1911"/><stop offset=".999" stop-color="#171714"/></radialGradient><circle cx="16.5" cy="27.5" r="1.266" fill="url(#dBoDMuh2nVWfd2lnbUtqGF)"/><path fill="#805b2a" d="M35.995,27.53c0.029,0.44-0.069,0.403-0.246,0.623c0,0-2.001,2.646-8.038,0.834c-0.436-0.149-0.751-0.433-0.706-0.773C27.779,22.353,35,23.065,35.995,27.53z"/><path fill="#fff" d="M35.904,27.484c0.151,0.309,0.103,0.557,0,0.806c-0.43,1.087-3.887,4.957-8.551,0.894c-0.348-0.287-0.403-0.54-0.317-0.898C27.122,27.928,28.331,25,31.497,25C34.632,25,35.642,27.063,35.904,27.484z"/><linearGradient id="dBoDMuh2nVWfd2lnbUtqGG" x1="15" x2="20" y1="27.5" y2="27.5" gradientTransform="translate(14)" gradientUnits="userSpaceOnUse"><stop offset="0" stop-color="#c69c6d"/><stop offset="1" stop-color="#754c24"/></linearGradient><circle cx="31.5" cy="27.5" r="2.5" fill="url(#dBoDMuh2nVWfd2lnbUtqGG)"/><radialGradient id="dBoDMuh2nVWfd2lnbUtqGH" cx="-528.5" cy="27.5" r="1.266" gradientTransform="matrix(-1 0 0 1 -497 0)" gradientUnits="userSpaceOnUse"><stop offset="0" stop-color="#1c1911"/><stop offset=".999" stop-color="#171714"/></radialGradient><circle cx="31.5" cy="27.5" r="1.266" fill="url(#dBoDMuh2nVWfd2lnbUtqGH)"/><circle cx="15.5" cy="26.5" r=".5" fill="#fff"/><circle cx="30.5" cy="26.5" r=".5" fill="#fff"/><g><path fill="#805b2a" d="M13.592,22.088c0.472-0.19,0.899-0.319,1.354-0.446c0.449-0.123,0.902-0.228,1.358-0.321 c0.911-0.182,1.832-0.313,2.759-0.4l0.006-0.001c0.562-0.052,1.059,0.36,1.112,0.922s-0.36,1.059-0.922,1.112 c-0.064,0.006-0.134,0.005-0.196-0.001c-0.862-0.086-1.73-0.129-2.597-0.125c-0.433,0.004-0.867,0.019-1.299,0.052 c-0.424,0.033-0.875,0.084-1.258,0.156l-0.037,0.007c-0.271,0.051-0.533-0.127-0.584-0.399 C13.242,22.406,13.375,22.175,13.592,22.088z"/></g><g><path fill="#805b2a" d="M33.967,22.921c-0.399-0.052-0.852-0.084-1.283-0.102c-0.437-0.018-0.875-0.022-1.312-0.017 c-0.876,0.013-1.751,0.065-2.621,0.151c-0.561,0.055-1.061-0.355-1.116-0.916c-0.055-0.561,0.355-1.061,0.916-1.116 c0.064-0.006,0.138-0.005,0.2,0c0.922,0.086,1.84,0.209,2.75,0.371c0.455,0.083,0.908,0.175,1.359,0.281 c0.456,0.11,0.889,0.222,1.361,0.38c0.262,0.088,0.404,0.371,0.316,0.634c-0.077,0.231-0.307,0.368-0.539,0.338L33.967,22.921z"/></g></svg>