<svg xmlns="http://www.w3.org/2000/svg" xmlns:xlink="http://www.w3.org/1999/xlink" viewBox="0 0 48 48"><radialGradient id="0D5oMJSXMnG7re3v3C6iPa" cx="21.478" cy="38.567" r="2.371" gradientTransform="matrix(.9227 .1748 -.4139 2.1652 35.355 -58.7)" gradientUnits="userSpaceOnUse"><stop offset="0" stop-color="#ffe16e"/><stop offset=".461" stop-color="#ffd226"/><stop offset=".741" stop-color="#f8c21d"/><stop offset=".999" stop-color="#f0af13"/></radialGradient><path fill="url(#0D5oMJSXMnG7re3v3C6iPa)" d="M38.442,25.118c1.015-0.309,3.467-0.112,3.552,2.722c0.08,2.679-0.62,3.9-1.55,5.051c-1.043,1.29-2.919,1.281-2.765,0.256C37.833,32.12,38.442,25.118,38.442,25.118z"/><radialGradient id="0D5oMJSXMnG7re3v3C6iPb" cx="-378.169" cy="38.567" r="2.371" gradientTransform="matrix(-.9179 .1748 .4118 2.1652 -354.227 11.143)" gradientUnits="userSpaceOnUse"><stop offset="0" stop-color="#ffe16e"/><stop offset=".461" stop-color="#ffd226"/><stop offset=".741" stop-color="#f8c21d"/><stop offset=".999" stop-color="#f0af13"/></radialGradient><path fill="url(#0D5oMJSXMnG7re3v3C6iPb)" d="M9.54,25.118c-1.01-0.309-3.527-0.113-3.533,2.722C6,30.583,6.623,31.74,7.549,32.89c1.038,1.29,2.904,1.281,2.75,0.256C10.145,32.12,9.54,25.118,9.54,25.118z"/><radialGradient id="0D5oMJSXMnG7re3v3C6iPc" cx="19.181" cy="17.074" r="18.821" fx="19.082" fy="9.012" gradientTransform="matrix(.8731 0 0 1.0879 7.254 6.424)" gradientUnits="userSpaceOnUse"><stop offset="0" stop-color="#c78857"/><stop offset=".632" stop-color="#b06f3c"/><stop offset=".714" stop-color="#ab6b3a"/><stop offset=".816" stop-color="#9b6133"/><stop offset=".928" stop-color="#825028"/><stop offset=".999" stop-color="#6e4220"/></radialGradient><path fill="url(#0D5oMJSXMnG7re3v3C6iPc)" d="M40,24.954c0,3.735-0.241,8.606-1.675,11.594C35.531,42.37,28.094,46,24,46c-4.255,0-11.61-3.63-14.404-9.451C8.162,33.56,8,28.689,8,24.954c0-0.82,0.022-3.611,0.064-4.346C8.309,16.38,8.555,14.696,10,12c2.869-5.352,8.447-8,14-8c5.523,0,11.125,2.696,14,8c1.412,2.604,1.61,4.126,1.902,8.106C39.967,20.991,40,23.947,40,24.954z"/><path fill="#f9f9f9" d="M13.592,22.088c0.472-0.19,0.899-0.319,1.354-0.446c0.449-0.123,0.902-0.228,1.358-0.321c0.911-0.182,1.832-0.313,2.759-0.4l0.006-0.001c0.562-0.052,1.059,0.36,1.112,0.922c0.052,0.562-0.36,1.059-0.922,1.112c-0.064,0.006-0.134,0.005-0.196-0.001c-0.862-0.086-1.73-0.129-2.597-0.125c-0.433,0.004-0.867,0.019-1.299,0.052c-0.424,0.033-0.875,0.084-1.258,0.156l-0.037,0.007c-0.271,0.051-0.533-0.127-0.584-0.399C13.242,22.406,13.375,22.175,13.592,22.088z"/><path fill="#f9f9f9" d="M33.967,22.921c-0.399-0.052-0.852-0.084-1.283-0.102c-0.437-0.018-0.875-0.022-1.312-0.017c-0.876,0.013-1.751,0.065-2.621,0.151c-0.561,0.055-1.061-0.355-1.116-0.916c-0.055-0.561,0.355-1.061,0.916-1.116c0.064-0.006,0.138-0.005,0.2,0c0.922,0.086,1.84,0.209,2.75,0.371c0.455,0.083,0.908,0.175,1.359,0.281c0.456,0.11,0.889,0.222,1.361,0.38c0.262,0.088,0.404,0.371,0.316,0.634c-0.077,0.231-0.307,0.368-0.539,0.338L33.967,22.921z"/><linearGradient id="0D5oMJSXMnG7re3v3C6iPd" x1="34.681" x2="39.472" y1="27.18" y2="27.18" gradientUnits="userSpaceOnUse"><stop offset="0" stop-opacity=".15"/><stop offset=".087" stop-opacity=".137"/><stop offset="1" stop-opacity="0"/></linearGradient><path fill="url(#0D5oMJSXMnG7re3v3C6iPd)" d="M38.424,28.447c-0.252-0.354-1.057-1.058-2.182-1.476c0.854-0.343,1.462-0.881,1.658-1.156c0.266-0.374,0.04-0.572-0.259-0.319c-1.079,0.96-2.783,0.644-2.783,0.644s-0.207,0.28-0.298,0.561c-0.734,0.214,0.119,1.346,0.119,1.346s2.098-0.39,3.426,0.792C38.473,29.151,38.752,28.907,38.424,28.447z"/><linearGradient id="0D5oMJSXMnG7re3v3C6iPe" x1="-237.319" x2="-232.528" y1="27.18" y2="27.18" gradientTransform="matrix(-1 0 0 1 -224 0)" gradientUnits="userSpaceOnUse"><stop offset="0" stop-opacity=".15"/><stop offset=".087" stop-opacity=".137"/><stop offset="1" stop-opacity="0"/></linearGradient><path fill="url(#0D5oMJSXMnG7re3v3C6iPe)" d="M9.576,28.447c0.252-0.354,1.057-1.058,2.182-1.476c-0.854-0.343-1.462-0.881-1.658-1.156c-0.266-0.374-0.04-0.572,0.259-0.319c1.079,0.96,2.783,0.644,2.783,0.644s0.207,0.28,0.298,0.561c0.734,0.214-0.119,1.346-0.119,1.346s-2.098-0.39-3.426,0.792C9.527,29.151,9.248,28.907,9.576,28.447z"/><linearGradient id="0D5oMJSXMnG7re3v3C6iPf" x1="28.344" x2="36.413" y1="26.971" y2="35.04" gradientUnits="userSpaceOnUse"><stop offset="0" stop-opacity=".15"/><stop offset=".087" stop-opacity=".137"/><stop offset="1" stop-opacity="0"/></linearGradient><path fill="url(#0D5oMJSXMnG7re3v3C6iPf)" d="M35.676,31.438c-2.781,2.938-8.062,1.5-8.615-3.438c-0.09-0.805,0.413-0.698,0.849-0.078c1.703,2.422,3.151,2.849,6.984,1.766C35.728,29.692,36.176,30.781,35.676,31.438z"/><linearGradient id="0D5oMJSXMnG7re3v3C6iPg" x1="-243.656" x2="-235.587" y1="26.971" y2="35.04" gradientTransform="matrix(-1 0 0 1 -224 0)" gradientUnits="userSpaceOnUse"><stop offset="0" stop-opacity=".15"/><stop offset=".087" stop-opacity=".137"/><stop offset="1" stop-opacity="0"/></linearGradient><path fill="url(#0D5oMJSXMnG7re3v3C6iPg)" d="M12.324,31.438c2.781,2.938,8.063,1.5,8.615-3.438c0.09-0.805-0.413-0.698-0.849-0.078c-1.703,2.422-3.151,2.849-6.984,1.766C12.272,29.692,11.824,30.781,12.324,31.438z"/><linearGradient id="0D5oMJSXMnG7re3v3C6iPh" x1="14.349" x2="22.312" y1="16.361" y2="16.361" gradientUnits="userSpaceOnUse"><stop offset="0" stop-opacity=".15"/><stop offset=".087" stop-opacity=".137"/><stop offset="1" stop-opacity="0"/></linearGradient><path fill="url(#0D5oMJSXMnG7re3v3C6iPh)" d="M22.341,15.254c-3.741,0-7.145,1.21-8.035,1.888c-0.287,0.219-0.222,0.411,0.046,0.289c1.271-0.579,4.757-1.57,8.005-1.57C22.91,15.895,22.956,15.237,22.341,15.254z"/><linearGradient id="0D5oMJSXMnG7re3v3C6iPi" x1="14.349" x2="22.777" y1="14.222" y2="14.222" gradientUnits="userSpaceOnUse"><stop offset="0" stop-opacity=".15"/><stop offset=".087" stop-opacity=".137"/><stop offset="1" stop-opacity="0"/></linearGradient><path fill="url(#0D5oMJSXMnG7re3v3C6iPi)" d="M22.341,13.114c-3.741,0-7.145,1.21-8.035,1.888c-0.287,0.219-0.222,0.411,0.046,0.289c1.271-0.579,4.757-1.57,8.005-1.57C22.91,13.756,22.956,13.098,22.341,13.114z"/><linearGradient id="0D5oMJSXMnG7re3v3C6iPj" x1="-257.651" x2="-249.688" y1="16.361" y2="16.361" gradientTransform="matrix(-1 0 0 1 -224 0)" gradientUnits="userSpaceOnUse"><stop offset="0" stop-opacity=".15"/><stop offset=".087" stop-opacity=".137"/><stop offset="1" stop-opacity="0"/></linearGradient><path fill="url(#0D5oMJSXMnG7re3v3C6iPj)" d="M25.659,15.254c3.741,0,7.145,1.21,8.035,1.888c0.287,0.219,0.222,0.411-0.046,0.289c-1.271-0.579-4.757-1.57-8.005-1.57C25.09,15.895,25.044,15.237,25.659,15.254z"/><linearGradient id="0D5oMJSXMnG7re3v3C6iPk" x1="-257.651" x2="-249.223" y1="14.222" y2="14.222" gradientTransform="matrix(-1 0 0 1 -224 0)" gradientUnits="userSpaceOnUse"><stop offset="0" stop-opacity=".15"/><stop offset=".087" stop-opacity=".137"/><stop offset="1" stop-opacity="0"/></linearGradient><path fill="url(#0D5oMJSXMnG7re3v3C6iPk)" d="M25.659,13.114c3.741,0,7.145,1.21,8.035,1.888c0.287,0.219,0.222,0.411-0.046,0.289c-1.271-0.579-4.757-1.57-8.005-1.57C25.09,13.756,25.044,13.098,25.659,13.114z"/><linearGradient id="0D5oMJSXMnG7re3v3C6iPl" x1="29.151" x2="29.151" y1="31.985" y2="37.261" gradientUnits="userSpaceOnUse"><stop offset="0" stop-opacity=".2"/><stop offset=".087" stop-opacity=".182"/><stop offset="1" stop-opacity="0"/></linearGradient><path fill="url(#0D5oMJSXMnG7re3v3C6iPl)" d="M31.171,36.281c-0.859-2.188-1.969-3.266-3.578-4.302c-0.519-0.334-0.691-0.17-0.328,0.193c1.719,1.719,2.281,2.375,3.375,4.484C30.937,37.172,31.39,36.844,31.171,36.281z"/><linearGradient id="0D5oMJSXMnG7re3v3C6iPm" x1="31.431" x2="31.431" y1="44.371" y2="37.841" gradientUnits="userSpaceOnUse"><stop offset="0" stop-opacity=".15"/><stop offset=".087" stop-opacity=".137"/><stop offset="1" stop-opacity="0"/></linearGradient><path fill="url(#0D5oMJSXMnG7re3v3C6iPm)" d="M30.418,44.094c0,0,1.033-2.316,1.276-4.341c0.144-1.204,0.781-0.781,0.75-0.117s-0.248,2.707-0.467,3.605C31.406,43.606,30.418,44.094,30.418,44.094z"/><linearGradient id="0D5oMJSXMnG7re3v3C6iPn" x1="-242.849" x2="-242.849" y1="31.985" y2="37.261" gradientTransform="matrix(-1 0 0 1 -224 0)" gradientUnits="userSpaceOnUse"><stop offset="0" stop-opacity=".2"/><stop offset=".087" stop-opacity=".182"/><stop offset="1" stop-opacity="0"/></linearGradient><path fill="url(#0D5oMJSXMnG7re3v3C6iPn)" d="M16.829,36.281c0.859-2.188,1.969-3.266,3.578-4.302c0.519-0.334,0.691-0.17,0.328,0.193c-1.719,1.719-2.281,2.375-3.375,4.484C17.063,37.172,16.61,36.844,16.829,36.281z"/><linearGradient id="0D5oMJSXMnG7re3v3C6iPo" x1="-240.569" x2="-240.569" y1="44.371" y2="37.841" gradientTransform="matrix(-1 0 0 1 -224 0)" gradientUnits="userSpaceOnUse"><stop offset="0" stop-opacity=".15"/><stop offset=".087" stop-opacity=".137"/><stop offset="1" stop-opacity="0"/></linearGradient><path fill="url(#0D5oMJSXMnG7re3v3C6iPo)" d="M17.582,44.094c0,0-1.033-2.316-1.276-4.341c-0.144-1.204-0.781-0.781-0.75-0.117s0.248,2.707,0.467,3.605C16.594,43.606,17.582,44.094,17.582,44.094z"/><path fill="#805b2a" d="M12.005,27.542c-0.029,0.438,0.069,0.401,0.246,0.62c0,0,2.001,2.631,8.038,0.83 c0.436-0.148,0.751-0.43,0.706-0.769C20.221,22.393,13,23.102,12.005,27.542z"/><path fill="#fff" d="M12.096,27.484c-0.151,0.309-0.103,0.557,0,0.806c0.43,1.087,3.887,4.957,8.551,0.894 c0.348-0.287,0.403-0.54,0.317-0.898C20.878,27.928,19.669,25,16.503,25C13.368,25,12.358,27.063,12.096,27.484z"/><linearGradient id="0D5oMJSXMnG7re3v3C6iPp" x1="14" x2="19" y1="27.5" y2="27.5" gradientUnits="userSpaceOnUse"><stop offset="0" stop-color="#c69c6d"/><stop offset="1" stop-color="#754c24"/></linearGradient><circle cx="16.5" cy="27.5" r="2.5" fill="url(#0D5oMJSXMnG7re3v3C6iPp)"/><radialGradient id="0D5oMJSXMnG7re3v3C6iPq" cx="16.5" cy="27.5" r="1.266" gradientUnits="userSpaceOnUse"><stop offset="0" stop-color="#1c1911"/><stop offset=".999" stop-color="#171714"/></radialGradient><circle cx="16.5" cy="27.5" r="1.266" fill="url(#0D5oMJSXMnG7re3v3C6iPq)"/><path fill="#805b2a" d="M35.995,27.53c0.029,0.44-0.069,0.403-0.246,0.623c0,0-2.001,2.646-8.038,0.834 c-0.436-0.149-0.751-0.433-0.706-0.773C27.779,22.353,35,23.065,35.995,27.53z"/><path fill="#fff" d="M35.904,27.484c0.151,0.309,0.103,0.557,0,0.806c-0.43,1.087-3.887,4.957-8.551,0.894 c-0.348-0.287-0.403-0.54-0.317-0.898C27.122,27.928,28.331,25,31.497,25C34.632,25,35.642,27.063,35.904,27.484z"/><linearGradient id="0D5oMJSXMnG7re3v3C6iPr" x1="15" x2="20" y1="27.5" y2="27.5" gradientTransform="translate(14)" gradientUnits="userSpaceOnUse"><stop offset="0" stop-color="#c69c6d"/><stop offset="1" stop-color="#754c24"/></linearGradient><circle cx="31.5" cy="27.5" r="2.5" fill="url(#0D5oMJSXMnG7re3v3C6iPr)"/><radialGradient id="0D5oMJSXMnG7re3v3C6iPs" cx="-528.5" cy="27.5" r="1.266" gradientTransform="matrix(-1 0 0 1 -497 0)" gradientUnits="userSpaceOnUse"><stop offset="0" stop-color="#1c1911"/><stop offset=".999" stop-color="#171714"/></radialGradient><circle cx="31.5" cy="27.5" r="1.266" fill="url(#0D5oMJSXMnG7re3v3C6iPs)"/><circle cx="15.5" cy="26.5" r=".5" fill="#fff"/><circle cx="30.5" cy="26.5" r=".5" fill="#fff"/><g><radialGradient id="0D5oMJSXMnG7re3v3C6iPt" cx="-38.575" cy="84.439" r="3.789" gradientTransform="matrix(1.0927 0 0 1.0817 66.21 -52.37)" gradientUnits="userSpaceOnUse"><stop offset=".57" stop-opacity=".2"/><stop offset="1" stop-opacity="0"/></radialGradient><path fill="url(#0D5oMJSXMnG7re3v3C6iPt)" d="M24,41c-3.673,0-4.299-1.947-4.299-1.947S20.314,43,24,43s4.299-3.947,4.299-3.947 S27.673,41,24,41z"/><radialGradient id="0D5oMJSXMnG7re3v3C6iPu" cx="15.17" cy="187.732" r="5.86" fx="15.166" fy="187.952" gradientTransform="matrix(.7909 0 0 .4766 12 -51.274)" gradientUnits="userSpaceOnUse"><stop offset=".78" stop-color="#fff" stop-opacity=".4"/><stop offset="1" stop-color="#fff" stop-opacity="0"/></radialGradient><path fill="url(#0D5oMJSXMnG7re3v3C6iPu)" d="M28.562,38c0,0,0.058,3-4.564,3s-4.564-3-4.564-3s1.014,0.914,4.564,0.914 S28.562,38,28.562,38z"/><radialGradient id="0D5oMJSXMnG7re3v3C6iPv" cx="-3.918" cy="102.83" r="4.691" gradientTransform="matrix(.8333 0 0 .6703 27.326 -31.007)" gradientUnits="userSpaceOnUse"><stop offset="0" stop-color="#1c1911"/><stop offset=".999" stop-color="#171714"/></radialGradient><path fill="url(#0D5oMJSXMnG7re3v3C6iPv)" d="M19.75,38c-0.249,0-0.394,0.209-0.271,0.377C20.39,39.623,22.477,40,23.999,40 c1.654,0,3.609-0.377,4.519-1.623C28.641,38.209,28.496,38,28.247,38C25.031,38,23.031,38,19.75,38z"/></g><path d="M37.452,20.078c-3.867-5.877-6.484-10.51-13.495-10.51c-0.003,0-0.006,0-0.009,0s-0.006,0-0.009,0c-7.011,0-9.629,4.633-13.495,10.51C6.888,25.48,7.648,30.09,9.197,35.307C8.716,25,13.007,19.137,18.254,16.538c3.096-1.533,4.218-2.611,5.064-3.614c0.233-0.276,0.432-0.44,0.629-0.487c0.197,0.046,0.396,0.211,0.629,0.487c0.846,1.003,2.013,2.152,5.109,3.685c5.248,2.6,9.263,7.227,9.012,18.698C40.246,30.09,41.006,25.48,37.452,20.078z" opacity=".1"/><path d="M37.452,20.078c-3.867-5.877-6.484-10.51-13.495-10.51c-0.003,0-0.006,0-0.009,0s-0.006,0-0.009,0c-7.011,0-9.629,4.633-13.495,10.51C6.888,25.48,7.648,30.09,9.197,35.307c-1.093-10.406,3.465-16.514,8.712-19.114c3.096-1.533,4.562-2.928,5.408-3.931c0.233-0.276,0.432-0.44,0.629-0.487c0.197,0.046,0.396,0.211,0.629,0.487c0.846,1.003,2.243,2.324,5.338,3.858c5.248,2.6,9.868,7.984,8.783,19.188C40.246,30.09,41.006,25.48,37.452,20.078z" opacity=".1"/><path d="M37.504,20.177C33.638,14.3,31.02,9.667,24.009,9.667c-0.003,0-0.006,0-0.009,0s-0.006,0-0.009,0c-7.011,0-9.629,4.633-13.495,10.51C6.941,25.579,7.701,30.189,9.25,35.406c-1.911-11.234,3.628-17.248,8.876-19.847c3.096-1.533,4.399-2.954,5.245-3.957c0.233-0.276,0.432-0.44,0.629-0.487c0.197,0.046,0.396,0.211,0.629,0.487c0.846,1.003,2.15,2.423,5.245,3.957c5.248,2.6,10.787,8.614,8.876,19.847C40.299,30.189,41.059,25.579,37.504,20.177z" opacity=".1"/><radialGradient id="0D5oMJSXMnG7re3v3C6iPw" cx="23.988" cy="21.628" r="20.651" fx="23.88" fy="12.781" gradientTransform="matrix(.9996 0 0 .9308 .006 1.296)" gradientUnits="userSpaceOnUse"><stop offset="0" stop-color="#fff"/><stop offset=".194" stop-color="#f5f0ea"/><stop offset=".46" stop-color="#e9dfd4"/><stop offset=".629" stop-color="#e5d9cc"/><stop offset=".718" stop-color="#e2d5c7"/><stop offset=".829" stop-color="#d9c9b7"/><stop offset=".952" stop-color="#cab69e"/><stop offset=".972" stop-color="#c7b299"/></radialGradient><path fill="url(#0D5oMJSXMnG7re3v3C6iPw)" d="M42.958,11.659C39.091,5.782,33.989,2,24.011,2C13.873,2,8.953,5.797,5.064,11.659C1.687,16.75,2.722,29.887,9.219,35.656c-3.061-12.998,3.405-18.164,8.652-20.763c3.096-1.533,4.76-3.256,5.557-4.298c0.299-0.39,0.867-0.39,1.166,0c0.797,1.042,2.462,2.764,5.557,4.298c5.248,2.6,11.66,7.516,8.599,20.513C45.247,29.637,46.512,17.061,42.958,11.659z"/><g><path fill="#c7b299" d="M31.608,12.184c-3.202-1.242-4.941-4.035-4.953-5.824 c-0.019-2.473-5.298-2.132-5.311-0.059c0,1.405-1.843,4.494-5.531,6.381C10.917,15.185,3.958,24.186,9.079,35.41 c-2.575-12.318,3.844-17.705,8.879-20.222c3.024-1.512,4.649-3.209,5.428-4.236c0.292-0.385,0.847-0.385,1.139,0 c0.779,1.027,2.404,2.725,5.428,4.236c5.108,2.554,11.626,7.613,8.719,20.327C44.081,22.511,37.077,14.312,31.608,12.184z" opacity=".063"/><path fill="#c7b299" d="M31.497,12.305c-3.14-1.234-4.983-3.999-4.995-5.93 c-0.018-2.362-4.994-2.039-5.007-0.055c0,1.576-1.947,4.613-5.539,6.449c-4.897,2.5-11.943,11.381-6.869,22.65 c-2.575-12.318,3.836-17.714,8.871-20.232c3.024-1.512,4.649-3.209,5.428-4.236c0.292-0.385,0.847-0.385,1.139,0 c0.779,1.027,2.404,2.725,5.428,4.236c5.108,2.554,11.631,7.607,8.725,20.32C44.032,22.514,36.931,14.455,31.497,12.305z" opacity=".125"/><path fill="#c7b299" d="M31.387,12.426c-3.077-1.227-5.025-3.964-5.036-6.035 c-0.017-2.251-4.689-1.945-4.704-0.051c0,1.747-2.052,4.732-5.548,6.518c-4.898,2.497-12.031,11.258-7.004,22.571 c-2.575-12.318,3.828-17.724,8.863-20.241c3.024-1.512,4.649-3.209,5.428-4.236c0.292-0.385,0.847-0.385,1.139,0 c0.779,1.027,2.404,2.725,5.428,4.236c5.108,2.554,11.636,7.6,8.73,20.314C43.984,22.518,36.784,14.599,31.387,12.426z" opacity=".188"/><path fill="#c7b299" d="M31.277,12.547c-3.012-1.226-5.067-3.928-5.077-6.141 c-0.015-2.141-4.385-1.852-4.401-0.047c0,1.918-2.156,4.851-5.557,6.586c-4.9,2.494-12.119,11.135-7.139,22.493 c-2.575-12.318,3.82-17.733,8.855-20.251c3.024-1.512,4.649-3.209,5.428-4.236c0.292-0.385,0.847-0.385,1.139,0 c0.779,1.027,2.404,2.725,5.428,4.236c5.108,2.554,11.642,7.593,8.735,20.307C43.935,22.521,36.643,14.731,31.277,12.547z" opacity=".25"/><path fill="#c7b299" d="M31.166,12.668c-2.949-1.219-5.109-3.892-5.118-6.246 c-0.014-2.03-4.081-1.759-4.098-0.043c0,2.089-2.26,4.97-5.565,6.654c-4.901,2.491-12.207,11.012-7.274,22.415 c-2.575-12.318,3.812-17.743,8.847-20.26c3.024-1.512,4.649-3.209,5.428-4.236c0.292-0.385,0.847-0.385,1.139,0 c0.779,1.027,2.404,2.725,5.428,4.236c5.108,2.554,11.647,7.587,8.74,20.301C43.886,22.524,36.497,14.872,31.166,12.668z" opacity=".313"/><path fill="#c7b299" d="M31.056,12.789c-2.885-1.213-5.152-3.857-5.16-6.352 c-0.013-1.919-3.776-1.666-3.795-0.039c0,2.26-2.364,5.089-5.574,6.723C11.625,15.609,4.233,24.01,9.119,35.457 c-2.575-12.318,3.803-17.753,8.839-20.27c3.024-1.512,4.649-3.209,5.428-4.236c0.292-0.385,0.847-0.385,1.139,0 c0.779,1.027,2.404,2.725,5.428,4.236c5.108,2.554,11.652,7.58,8.745,20.294C43.838,22.527,36.351,15.014,31.056,12.789z" opacity=".375"/><path fill="#c7b299" d="M30.946,12.91c-2.823-1.206-5.194-3.821-5.201-6.457 c-0.011-1.809-3.472-1.573-3.491-0.035c0,2.431-2.468,5.208-5.582,6.791c-4.904,2.485-12.383,10.766-7.544,22.258 c-2.575-12.318,3.795-17.762,8.831-20.279c3.024-1.512,4.649-3.209,5.428-4.236c0.292-0.385,0.847-0.385,1.139,0 c0.779,1.027,2.404,2.725,5.428,4.236c5.108,2.554,11.657,7.574,8.751,20.288C43.789,22.53,36.206,15.157,30.946,12.91z" opacity=".438"/><path fill="#c7b299" d="M30.835,13.031c-2.76-1.198-5.236-3.785-5.242-6.562 c-0.01-1.698-3.167-1.48-3.188-0.031c0,2.602-2.573,5.327-5.591,6.859c-4.905,2.482-12.471,10.643-7.679,22.18 c-2.575-12.318,3.787-17.772,8.823-20.289c3.024-1.512,4.649-3.209,5.428-4.236c0.292-0.385,0.847-0.385,1.139,0 c0.779,1.027,2.404,2.725,5.428,4.236c5.108,2.554,11.662,7.567,8.756,20.281C43.741,22.533,36.059,15.3,30.835,13.031z" opacity=".5"/><path fill="#c7b299" d="M30.725,13.152c-2.697-1.191-5.278-3.75-5.283-6.668 c-0.009-1.587-2.863-1.386-2.885-0.027c0,2.772-2.677,5.446-5.6,6.928c-4.907,2.479-12.559,10.52-7.813,22.101 c-2.575-12.318,3.779-17.781,8.815-20.299c3.024-1.512,4.649-3.209,5.428-4.236c0.292-0.385,0.847-0.385,1.139,0 c0.779,1.027,2.404,2.725,5.428,4.236c5.108,2.554,11.668,7.561,8.761,20.275C43.692,22.536,35.913,15.443,30.725,13.152z" opacity=".563"/><path fill="#c7b299" d="M30.615,13.273C27.98,12.09,25.295,9.56,25.29,6.5 c-0.008-1.477-2.559-1.293-2.582-0.023c0,2.943-2.781,5.565-5.608,6.996C12.192,15.949,4.452,23.87,9.151,35.496 c-2.575-12.318,3.771-17.791,8.806-20.308c3.024-1.512,4.649-3.209,5.428-4.236c0.292-0.385,0.847-0.385,1.139,0 c0.779,1.027,2.404,2.725,5.428,4.236c5.108,2.554,11.673,7.554,8.766,20.268C43.644,22.54,35.767,15.587,30.615,13.273z" opacity=".625"/><path fill="#c7b299" d="M30.504,13.395c-2.572-1.175-5.362-3.678-5.366-6.879 c-0.006-1.366-2.254-1.2-2.279-0.02c0,3.114-2.885,5.684-5.617,7.064c-4.91,2.473-12.736,10.274-8.083,21.945 c-2.575-12.318,3.763-17.8,8.798-20.318c3.024-1.512,4.649-3.209,5.428-4.236c0.292-0.385,0.847-0.385,1.139,0 c0.779,1.027,2.404,2.725,5.428,4.236c5.108,2.554,11.678,7.548,8.772,20.262C43.595,22.543,35.62,15.732,30.504,13.395z" opacity=".688"/><path fill="#c7b299" d="M30.394,13.516c-2.51-1.167-5.404-3.643-5.407-6.984 c-0.005-1.255-1.95-1.107-1.976-0.016c0,3.285-2.989,5.803-5.625,7.133c-4.911,2.47-12.824,10.151-8.218,21.866 c-2.575-12.318,3.755-17.81,8.79-20.327c3.024-1.512,4.649-3.209,5.428-4.236c0.292-0.385,0.847-0.385,1.139,0 c0.779,1.027,2.404,2.725,5.428,4.236c5.108,2.554,11.683,7.541,8.777,20.255C43.546,22.546,35.473,15.877,30.394,13.516z" opacity=".75"/><path fill="#c7b299" d="M30.283,13.637c-2.447-1.158-5.446-3.607-5.448-7.09 c-0.004-1.145-1.645-1.014-1.672-0.012c0,3.456-3.093,5.922-5.634,7.201c-4.913,2.467-12.912,10.028-8.353,21.788 C6.6,23.207,12.923,17.705,17.958,15.188c3.024-1.512,4.649-3.209,5.428-4.236c0.292-0.385,0.847-0.385,1.139,0 c0.779,1.027,2.404,2.725,5.428,4.236c5.108,2.554,11.688,7.535,8.782,20.249C43.498,22.549,35.326,16.023,30.283,13.637z" opacity=".813"/><path fill="#c7b299" d="M30.173,13.758c-2.387-1.145-5.488-3.571-5.49-7.195 c-0.003-1.034-1.341-0.921-1.369-0.008c0,3.627-3.198,6.042-5.642,7.27c-4.914,2.464-13,9.905-8.488,21.71 c-2.575-12.318,3.739-17.829,8.774-20.346c3.024-1.512,4.649-3.209,5.428-4.236c0.292-0.385,0.847-0.385,1.139,0 c0.779,1.027,2.404,2.725,5.428,4.236c5.108,2.554,11.694,7.528,8.787,20.242C43.449,22.552,35.174,16.177,30.173,13.758z" opacity=".875"/><path fill="#c7b299" d="M30.063,13.879c-2.324-1.138-5.53-3.536-5.531-7.301 c-0.001-0.923-1.037-0.828-1.066-0.004c0,3.798-3.302,6.161-5.651,7.338c-4.916,2.461-13.088,9.782-8.623,21.631 c-2.575-12.318,3.731-17.839,8.766-20.356c3.024-1.512,4.649-3.209,5.428-4.236c0.292-0.385,0.847-0.385,1.139,0 c0.779,1.027,2.404,2.725,5.428,4.236c5.108,2.554,11.699,7.522,8.792,20.236C43.401,22.555,35.028,16.321,30.063,13.879z" opacity=".938"/><path fill="#c7b299" d="M29.952,14c-2.262-1.131-5.572-3.5-5.572-7.406c0-0.813-0.732-0.734-0.763,0 c0,3.969-3.406,6.28-5.66,7.406C13.041,16.458,4.782,23.659,9.2,35.553c-2.575-12.318,3.723-17.848,8.758-20.365 c3.024-1.512,4.649-3.209,5.428-4.236c0.292-0.385,0.847-0.385,1.139,0c0.779,1.027,2.404,2.725,5.428,4.236 c5.108,2.554,11.704,7.515,8.798,20.229C43.352,22.558,34.881,16.464,29.952,14z"/></g><radialGradient id="0D5oMJSXMnG7re3v3C6iPx" cx="24" cy="31.951" r="3.384" gradientTransform="matrix(.9999 -.011 .0059 .5371 -.188 15.056)" gradientUnits="userSpaceOnUse"><stop offset="0" stop-color="#fff" stop-opacity=".4"/><stop offset="1" stop-color="#fff" stop-opacity="0"/></radialGradient><ellipse cx="24" cy="32" fill="url(#0D5oMJSXMnG7re3v3C6iPx)" rx="3.5" ry="2"/><radialGradient id="0D5oMJSXMnG7re3v3C6iPy" cx="24.029" cy="32.953" r="2.701" gradientTransform="matrix(.0022 1 -1.2107 .0026 63.875 8.837)" gradientUnits="userSpaceOnUse"><stop offset=".415" stop-opacity=".3"/><stop offset="1" stop-opacity="0"/></radialGradient><path fill="url(#0D5oMJSXMnG7re3v3C6iPy)" d="M26.754,33.238C26.465,33.386,25.66,34,24,34s-2.465-0.614-2.754-0.762c-0.289-0.148-0.48-0.078-0.48,0.198C20.766,34.155,21.931,36,24,36s3.234-1.845,3.234-2.564C27.234,33.16,27.043,33.09,26.754,33.238z"/></svg>