<svg xmlns="http://www.w3.org/2000/svg" xmlns:xlink="http://www.w3.org/1999/xlink" viewBox="0 0 64 64"><path fill="#fff" d="M49.308,6.282L32,5L14.692,6.282c-5.397,0.4-9.497,5.021-9.251,10.427L6,29h52l0.559-12.291 C58.804,11.303,54.705,6.682,49.308,6.282z"/><path fill="#d1ac8d" d="M60.105,33.199c-0.858,3.201-3.758,6.24-6.158,5.597s-3.393-4.725-2.535-7.926 s3.24-4.308,5.641-3.665S60.963,29.998,60.105,33.199z"/><path fill="#e2c2a7" d="M55.75,36.25l-0.41,10.23c-0.2,5.1-3.61,9.52-8.5,11l-6.49,1.98l-1.17,0.36l-0.77,0.23 c-4.18,1.27-8.64,1.27-12.82,0l-1.94-0.59l-0.35-0.11l-6.14-1.87c-4.89-1.48-8.3-5.9-8.5-11l-0.31-7.79 c-1.92-0.67-3.8-3.03-4.46-5.49c-0.85-3.2,0.66-5.35,3.06-6c0.91-0.24,1.83-0.23,2.65,0.06c0.05-0.09,0.1-0.19,0.15-0.28l0.34-0.59 c0.92-1.57,1.46-3.33,1.59-5.15l0.11-1.54c0.49-6.84,4.78-12.57,10.7-15.18C24.71,3.54,27.17,3,29.74,3h4.52 c8.14,0,15.09,5.43,17.28,12.97c0.35,1.19,0.58,2.44,0.67,3.73l0.11,1.54c0.13,1.82,0.67,3.58,1.59,5.15l0.34,0.59 c0.68,1.17,1.15,2.43,1.4,3.74L55.75,36.25z"/><path fill="#edd2bc" d="M48.632,16.979l-0.088,0.031c-1.423,0.493-2.94-0.186-3.636-1.521C42.893,11.626,38.844,9,34.26,9 h-4.52c-0.81,0-1.602,0.082-2.371,0.239c-1.352,0.275-2.727-0.334-3.335-1.573l-0.041-0.083c-0.848-1.728,0.153-3.805,2.037-4.2 C27.229,3.132,28.471,3,29.74,3h4.52c6.962,0,13.053,3.972,16.041,9.839C51.115,14.438,50.327,16.391,48.632,16.979z"/><path fill="#d1ac8d" d="M8,27c0.607-0.101,2.435-0.435,2,0c-2,2-1,9-2,11c-1.414,2.828-4-5-4-5S2,28,8,27z"/><path fill="#c5e4fa" d="M29 32c0 2.76-2.24 5-5 5-.42 0-.83-.05-1.22-.15-1.46-.37-2.67-1.38-3.3-2.71C19.17 33.49 19 32.77 19 32c0-2.76 2.24-5 5-5 .77 0 1.49.17 2.14.48 1.33.63 2.34 1.84 2.71 3.3C28.95 31.17 29 31.58 29 32zM45 32c0 2.76-2.24 5-5 5-.97 0-1.87-.27-2.63-.75-.82-.5-1.47-1.24-1.89-2.11C35.17 33.49 35 32.77 35 32c0-2.76 2.24-5 5-5 .77 0 1.49.17 2.14.48.87.42 1.61 1.07 2.11 1.89C44.73 30.13 45 31.03 45 32z"/><path fill="#e3f2ff" d="M45 32c0 2.76-2.24 5-5 5-.97 0-1.87-.27-2.63-.75l6.88-6.88C44.73 30.13 45 31.03 45 32zM42.14 27.48l-6.66 6.66C35.17 33.49 35 32.77 35 32c0-2.76 2.24-5 5-5C40.77 27 41.49 27.17 42.14 27.48zM28.85 30.78l-6.07 6.07c-1.46-.37-2.67-1.38-3.3-2.71l6.66-6.66C27.47 28.11 28.48 29.32 28.85 30.78z"/><path fill="#fff" d="M32,41c7,0,12,5,12,8h-8l-4-2l-5,2h-7C20,49,20,41,32,41z"/><path fill="#d1ac8d" d="M43.35,59.46l-4.17,0.36l-0.77,0.23c-4.18,1.27-8.64,1.27-12.82,0l-4.94-0.59C23,58,25,55.998,32,56 S41,58,43.35,59.46z"/><path fill="#8d6c9f" d="M60.67,28.75c-0.38-0.68-0.92-1.26-1.58-1.69l0.47-10.31c0.27-5.98-4.2-11.02-10.18-11.46l-5.05-0.38 C41.4,3.07,37.94,2,34.26,2h-4.52c-3.68,0-7.14,1.07-10.07,2.91l-5.05,0.38C8.64,5.73,4.17,10.77,4.44,16.75l0.47,10.31 c-0.66,0.43-1.2,1.01-1.58,1.69c-0.74,1.31-0.87,2.94-0.4,4.71c0.68,2.54,2.49,4.9,4.44,5.9l0.29,7.16 c0.22,5.52,3.92,10.31,9.2,11.92l8.44,2.57c2.19,0.66,4.45,1,6.7,1s4.51-0.34,6.7-1l8.44-2.57c5.28-1.61,8.98-6.4,9.2-11.92 l0.29-7.16c0.56-0.28,1.12-0.68,1.66-1.2c1.3-1.23,2.31-2.95,2.78-4.7C61.54,31.69,61.41,30.06,60.67,28.75z M49.23,7.28 c4.89,0.36,8.55,4.48,8.33,9.38l-0.44,9.54c-0.76-0.19-1.51-0.21-2.22-0.1l-0.13-0.21c-0.83-1.43-1.33-3.07-1.45-4.72l-0.11-1.54 c-0.36-4.94-2.61-9.33-6.01-12.5L49.23,7.28z M14.77,7.28l2.03-0.15c-3.4,3.17-5.65,7.56-6.01,12.5l-0.11,1.54 c-0.12,1.65-0.62,3.29-1.45,4.72L9.1,26.1c-0.71-0.11-1.46-0.09-2.22,0.1l-0.44-9.54C6.22,11.76,9.88,7.64,14.77,7.28z M59.14,32.94 c-0.37,1.39-1.2,2.8-2.22,3.77c-0.06,0.06-0.13,0.12-0.19,0.17l0.02-0.59c0.02-0.55-0.41-1.02-0.96-1.04 c-0.57-0.02-1.02,0.41-1.04,0.96l-0.07,1.67l-0.08,2l-0.26,6.56c-0.19,4.67-3.32,8.73-7.79,10.09l-8.44,2.56 c-4,1.22-8.22,1.22-12.22,0l-8.44-2.56c-4.47-1.36-7.6-5.42-7.79-10.09l-0.236-5.929c0-0.011,0.006-0.021,0.005-0.032l-0.177-4.413 c-0.022-0.551-0.478-0.978-1.039-0.959c-0.552,0.022-0.981,0.487-0.959,1.039l0.029,0.724c-1.069-0.944-2.016-2.421-2.423-3.93 c-0.34-1.25-0.26-2.36,0.21-3.21c0.03-0.06,0.07-0.11,0.11-0.17c0.43-0.67,1.13-1.15,2.03-1.39c0.72-0.19,1.44-0.18,2.07,0.03 c0.35,0.12,0.72,0.04,0.98-0.2c0.09-0.07,0.16-0.16,0.22-0.26l0.48-0.84c0.98-1.7,1.58-3.63,1.72-5.59l0.11-1.54 c0.39-5.39,3.32-10.08,7.55-12.9c1.67-1.12,3.54-1.95,5.54-2.42C27.12,4.15,28.42,4,29.74,4h4.52c1.32,0,2.62,0.15,3.86,0.45 c2,0.47,3.87,1.3,5.54,2.42c4.23,2.82,7.16,7.51,7.55,12.9l0.11,1.54c0.14,1.93,0.72,3.84,1.68,5.52c0.01,0.02,0.03,0.05,0.04,0.07 l0.35,0.59c0.1,0.17,0.19,0.34,0.28,0.51c0.1,0.2,0.19,0.41,0.28,0.61c0.2,0.45,0.37,0.91,0.5,1.39c0.09,0.3,0.16,0.6,0.22,0.91 c0.1,0.54,0.63,0.89,1.17,0.79c0.54-0.1,0.9-0.63,0.79-1.17c-0.03-0.18-0.07-0.35-0.12-0.53c-0.15-0.67-0.36-1.33-0.62-1.96 c0.29,0,0.59,0.05,0.9,0.13c0.9,0.24,1.6,0.72,2.03,1.39c0.04,0.06,0.08,0.11,0.11,0.17c0.28,0.5,0.42,1.09,0.42,1.75 C59.35,31.94,59.28,32.43,59.14,32.94z"/><path fill="#8d6c9f" d="M40 26c-1.558 0-2.975.602-4.043 1.579C35.744 25.573 34.061 24 32 24s-3.744 1.573-3.957 3.579C26.975 26.602 25.558 26 24 26c-3.309 0-6 2.691-6 6s2.691 6 6 6 6-2.691 6-6c0-.253-.021-.501-.051-.746C29.971 31.171 30 31.09 30 31v-3c0-1.103.897-2 2-2s2 .897 2 2v3c0 .09.029.171.051.254C34.021 31.499 34 31.747 34 32c0 3.309 2.691 6 6 6s6-2.691 6-6S43.309 26 40 26zM24 36c-2.206 0-4-1.794-4-4s1.794-4 4-4 4 1.794 4 4S26.206 36 24 36zM40 36c-2.206 0-4-1.794-4-4s1.794-4 4-4 4 1.794 4 4S42.206 36 40 36zM29.787 10.933c.027 0 .054-.001.081-.003.551-.044.961-.526.917-1.076L30.63 7.92c-.043-.551-.537-.968-1.076-.917-.551.044-.961.526-.917 1.076l.155 1.933C28.833 10.536 29.271 10.933 29.787 10.933zM43.514 15.634c.298 0 .594-.133.791-.387l1.152-1.485c.338-.436.259-1.064-.177-1.403-.435-.338-1.064-.259-1.403.177l-1.152 1.485c-.338.436-.259 1.064.177 1.403C43.083 15.565 43.299 15.634 43.514 15.634zM38.979 12.69c.129.056.263.083.396.083.387 0 .755-.227.918-.604l.758-1.757c.219-.507-.015-1.095-.522-1.314-.506-.221-1.096.015-1.314.522l-.758 1.757C38.238 11.883 38.472 12.472 38.979 12.69zM34.532 11.156c.055.009.109.013.163.013.481 0 .905-.348.985-.838l.312-1.911c.089-.545-.28-1.06-.825-1.148-.546-.085-1.059.281-1.148.825l-.312 1.911C33.617 10.553 33.987 11.067 34.532 11.156zM32 40c-6.409 0-11.804 3.164-12.829 7.523-.142.606-.002 1.233.383 1.72C19.936 49.724 20.506 50 21.12 50h5.421c1.066 0 2.136-.249 3.092-.72l1.926-.948c.28-.138.602-.138.883 0l1.925.947c.957.471 2.026.72 3.092.72h5.421c.613 0 1.184-.276 1.565-.757.385-.487.525-1.113.383-1.72C43.804 43.164 38.409 40 32 40zM37.459 48c-.762 0-1.525-.178-2.209-.515l-1.925-.947c-.415-.205-.87-.307-1.325-.307s-.91.102-1.325.306l-1.926.948C28.066 47.822 27.302 48 26.541 48l-5.422-.019C21.92 44.571 26.598 42 32 42s10.08 2.571 10.88 6H37.459zM34 52h-4c-.552 0-1 .448-1 1s.448 1 1 1h4c.552 0 1-.448 1-1S34.552 52 34 52z"/></svg>